<?xml version="1.0" encoding="UTF-8"?>
<svg version="1.1" xmlns="http://www.w3.org/2000/svg" width="2000" height="1687">
<path d="M0 0 C-0.3125 1.9375 -0.3125 1.9375 -1 4 C-1.99 4.33 -2.98 4.66 -4 5 C-4.69950955 6.31639987 -5.3631202 7.6521846 -6 9 C-7.4453125 10.5703125 -7.4453125 10.5703125 -9.125 12.125 C-27.47725282 30.10118206 -40.71252473 53.87480357 -49 78 C-49.56847656 79.57201172 -49.56847656 79.57201172 -50.1484375 81.17578125 C-62.72120948 116.86165662 -60.12654431 155.47609001 -44.18896484 189.5859375 C-37.86845193 202.41904462 -29.76121559 213.59432936 -20 224 C-19.54125488 224.49580566 -19.08250977 224.99161133 -18.60986328 225.50244141 C0.78041397 246.30317455 26.15540896 258.36130456 51.4765625 270.3671875 C58.07948433 273.50250163 64.61172662 276.76861377 71.13476562 280.06591797 C73.01536029 281.00769221 74.90440972 281.92999461 76.796875 282.84765625 C94.07764466 291.26436651 110.5060419 300.97231392 126.34033203 311.86181641 C127.88468986 312.92092147 129.44187732 313.96125154 131 315 C131 315.66 131 316.32 131 317 C131.57234375 317.268125 132.1446875 317.53625 132.734375 317.8125 C135.07884634 319.04132636 137.12404938 320.42522176 139.25 322 C140.30960938 322.7734375 140.30960938 322.7734375 141.390625 323.5625 C141.92171875 324.036875 142.4528125 324.51125 143 325 C143 325.66 143 326.32 143 327 C143.86625 327.37125 143.86625 327.37125 144.75 327.75 C147.32939979 329.18299988 149.06121592 330.78424676 151 333 C151 333.66 151 334.32 151 335 C151.66 335 152.32 335 153 335 C156 338.46153846 156 338.46153846 156 341 C156.66 341 157.32 341 158 341 C170.35300432 357.90698162 176.20344996 377.89934324 173.3125 398.75 C168.09034896 426.20064924 154.84484214 449.39970196 136.04296875 469.765625 C134.14864694 471.83742629 132.34989006 473.96108951 130.5625 476.125 C129.716875 477.07375 128.87125 478.0225 128 479 C127.34 479 126.68 479 126 479 C126 479.66 126 480.32 126 481 C124.6015625 482.41015625 124.6015625 482.41015625 122.625 484.0625 C119.50849769 486.70121101 116.48684101 489.40315668 113.5 492.1875 C84.95184723 517.89395303 49.16033903 537.14408576 14 552 C13.12472656 552.3722168 12.24945312 552.74443359 11.34765625 553.12792969 C-25.51289071 568.63633054 -72.14940426 583.18534638 -112 571 C-115.97378366 569.35415826 -119.47508023 567.4547354 -123 565 C-123.94875 564.360625 -124.8975 563.72125 -125.875 563.0625 C-133.10683256 556.0433684 -136.00486662 548.37184688 -136.35424805 538.30151367 C-136.58198661 515.78754705 -126.86538281 495.60013796 -115 477 C-114.53094238 476.26056152 -114.06188477 475.52112305 -113.57861328 474.75927734 C-110.81868521 470.42091954 -108.01574329 466.11324124 -105.18505859 461.82080078 C-104.13547077 460.20814606 -103.1215982 458.57236975 -102.11328125 456.93359375 C-101.60152344 456.10988281 -101.08976563 455.28617188 -100.5625 454.4375 C-100.15128906 453.75558594 -99.74007812 453.07367187 -99.31640625 452.37109375 C-98.88199219 451.91863281 -98.44757812 451.46617187 -98 451 C-96.68 451 -95.36 451 -94 451 C-94.02320313 451.78503906 -94.04640625 452.57007813 -94.0703125 453.37890625 C-94.22058368 462.12683565 -93.66211725 470.64324064 -87.63671875 477.56640625 C-78.20010865 486.5525815 -65.27224999 487.26166609 -52.89453125 487.15234375 C-22.63315294 485.96859876 12.49505154 472.41146488 35 452 C35.66 452 36.32 452 37 452 C37 451.34 37 450.68 37 450 C37.71929688 449.43667969 38.43859375 448.87335938 39.1796875 448.29296875 C42.46778505 445.61968168 44.69507264 442.75292889 47.125 439.3125 C47.56513428 438.6939917 48.00526855 438.0754834 48.45874023 437.43823242 C51.67249396 432.78389314 53.64082831 428.52729821 55 423 C55.33 422.01 55.66 421.02 56 420 C56.84028744 411.93324054 53.90408205 404.29877666 49.25 397.75 C38.71648698 384.9220584 23.29233434 378.41310947 8.4375 371.875 C7.11752969 371.28845497 5.79786748 370.7012161 4.47851562 370.11328125 C2.52591569 369.24329433 0.57317304 368.37365915 -1.38063049 367.50637817 C-7.61729031 364.73582304 -13.81529815 361.88466482 -20 359 C-20.99056396 358.53803223 -21.98112793 358.07606445 -23.00170898 357.60009766 C-70.86647168 335.16040912 -123.54746043 307.1587154 -143.77734375 254.99560547 C-149.12929204 240.18734314 -152.11231698 224.24263531 -152.203125 208.50390625 C-152.20882507 207.71209457 -152.21452515 206.9202829 -152.22039795 206.10447693 C-152.22978871 204.43465483 -152.23635815 202.7648147 -152.24023438 201.0949707 C-152.24985511 198.60007273 -152.28089961 196.10603057 -152.3125 193.61132812 C-152.62047111 147.09242173 -128.34242796 102.97221698 -98 69 C-97.54238281 68.48598633 -97.08476563 67.97197266 -96.61328125 67.44238281 C-83.38165952 52.64483386 -83.38165952 52.64483386 -77 47 C-76.34 47 -75.68 47 -75 47 C-75 46.34 -75 45.68 -75 45 C-73.30411736 43.45908595 -71.54178328 41.99076703 -69.75 40.5625 C-68.28820312 39.38880859 -68.28820312 39.38880859 -66.796875 38.19140625 C-65.87390625 37.46824219 -64.9509375 36.74507812 -64 36 C-63.26265625 35.41089844 -62.5253125 34.82179688 -61.765625 34.21484375 C-60 33 -60 33 -58 33 C-58 32.34 -58 31.68 -58 31 C-56.6015625 29.81420898 -56.6015625 29.81420898 -54.625 28.49609375 C-53.89531006 28.0072168 -53.16562012 27.51833984 -52.41381836 27.01464844 C-51.6172583 26.49418945 -50.82069824 25.97373047 -50 25.4375 C-49.18345947 24.9002832 -48.36691895 24.36306641 -47.52563477 23.80957031 C-10.95082041 0 -10.95082041 0 0 0 Z " fill="#FAFAFA" transform="translate(991,577)"/>
<path d="M0 0 C0.60199219 0.53882813 1.20398437 1.07765625 1.82421875 1.6328125 C2.80455078 2.47199219 2.80455078 2.47199219 3.8046875 3.328125 C10.41348083 9.40548959 12.88723194 16.84539567 13.82421875 25.6328125 C14.20699038 52.19716333 -0.46032817 78.89110183 -14.765625 100.43359375 C-16.05896808 102.45063572 -17.15099685 104.46937876 -18.17578125 106.6328125 C-19.49578125 106.6328125 -20.81578125 106.6328125 -22.17578125 106.6328125 C-22.21445313 105.364375 -22.21445313 105.364375 -22.25390625 104.0703125 C-22.70394364 95.0695646 -23.69908149 88.61699492 -30.42578125 82.3203125 C-40.16288105 74.64739446 -52.84470154 74.89081104 -64.640625 75.94140625 C-73.09044304 77.01545511 -81.08418835 78.99691481 -89.17578125 81.6328125 C-90.408125 82.03113281 -91.64046875 82.42945313 -92.91015625 82.83984375 C-117.47305948 91.20896467 -144.9163982 107.2761629 -157.11328125 131.0078125 C-160.77591532 138.63105766 -161.82970912 147.26310948 -159.3046875 155.4609375 C-150.13634994 175.0601378 -126.95974567 181.43162898 -108.23388672 188.48095703 C-78.70630909 199.60271268 -78.70630909 199.60271268 -69.28125 204.15625 C-66.88092806 205.29753515 -64.48076568 206.37582528 -62.0390625 207.421875 C-51.00607112 212.16041104 -40.53995242 217.57230173 -30.17578125 223.6328125 C-29.5739502 223.9834375 -28.97211914 224.3340625 -28.35205078 224.6953125 C-14.27395845 232.95897919 -1.90044302 242.31300783 9.82421875 253.6328125 C10.82195312 254.53580078 10.82195312 254.53580078 11.83984375 255.45703125 C27.98954494 270.43701109 37.14151657 292.53342766 41.82421875 313.6328125 C42.05625 314.65761719 42.28828125 315.68242188 42.52734375 316.73828125 C44.84865989 328.22879615 45.00529665 340.01351114 45.01171875 351.6953125 C45.02396484 352.87158203 45.03621094 354.04785156 45.04882812 355.25976562 C45.06154666 362.92904455 44.31997131 370.11674226 42.82421875 377.6328125 C42.69942139 378.33462646 42.57462402 379.03644043 42.44604492 379.75952148 C36.46784113 412.84748671 17.79596301 442.97173412 -3.17578125 468.6328125 C-6.39937167 472.78291858 -6.39937167 472.78291858 -9.6171875 476.9375 C-10.13152344 477.49695313 -10.64585937 478.05640625 -11.17578125 478.6328125 C-11.83578125 478.6328125 -12.49578125 478.6328125 -13.17578125 478.6328125 C-13.38332031 479.16519531 -13.59085938 479.69757813 -13.8046875 480.24609375 C-15.73053125 483.59848843 -18.37795166 486.13055864 -21.11328125 488.8203125 C-21.6973877 489.39765137 -22.28149414 489.97499023 -22.88330078 490.56982422 C-38.60225846 505.92133685 -56.97484318 518.20851952 -76.23828125 528.6328125 C-76.96515137 529.03129395 -77.69202148 529.42977539 -78.44091797 529.84033203 C-79.12814941 530.20497559 -79.81538086 530.56961914 -80.5234375 530.9453125 C-81.13195557 531.27144531 -81.74047363 531.59757812 -82.36743164 531.93359375 C-84.17578125 532.6328125 -84.17578125 532.6328125 -88.17578125 532.6328125 C-86.56387679 528.82038679 -84.01041987 526.00613921 -81.30078125 522.9453125 C-70.65357369 510.58075605 -61.82250135 497.54652575 -55.17578125 482.6328125 C-54.86801758 481.95250977 -54.56025391 481.27220703 -54.24316406 480.57128906 C-38.31995834 445.01445454 -35.55589336 405.43321901 -49.23828125 368.6953125 C-55.98002075 351.52468231 -69.98576203 326.22782211 -87.17578125 317.6328125 C-87.17578125 316.9728125 -87.17578125 316.3128125 -87.17578125 315.6328125 C-87.706875 315.38660156 -88.23796875 315.14039063 -88.78515625 314.88671875 C-91.79580783 313.30760248 -94.59401444 311.44408481 -97.42578125 309.5703125 C-99.98796279 307.87547232 -102.55707575 306.23674694 -105.17578125 304.6328125 C-106.21081787 303.99762695 -107.24585449 303.36244141 -108.31225586 302.70800781 C-119.60531966 295.98131624 -131.5723525 291.00841255 -143.69381714 285.98028564 C-200.87564922 262.22529492 -200.87564922 262.22529492 -221.17578125 248.6328125 C-221.75489258 248.24851074 -222.33400391 247.86420898 -222.93066406 247.46826172 C-231.73735691 241.57739429 -239.55094817 234.97271161 -247.17578125 227.6328125 C-247.84222656 227.02953125 -248.50867188 226.42625 -249.1953125 225.8046875 C-257.75020487 217.84844448 -263.35713922 207.57070574 -267.17578125 196.6328125 C-267.72105469 195.116875 -267.72105469 195.116875 -268.27734375 193.5703125 C-272.82059926 177.0430386 -269.36370065 158.19430903 -263.17578125 142.6328125 C-262.89250977 141.8996582 -262.60923828 141.16650391 -262.31738281 140.41113281 C-258.84279498 131.53959068 -254.52217369 123.53118224 -249.17578125 115.6328125 C-248.23316576 114.07339321 -247.29514892 112.51117812 -246.36328125 110.9453125 C-245.28046875 109.305625 -245.28046875 109.305625 -244.17578125 107.6328125 C-243.51578125 107.6328125 -242.85578125 107.6328125 -242.17578125 107.6328125 C-241.90765625 106.8903125 -241.63953125 106.1478125 -241.36328125 105.3828125 C-240.22301374 102.74219301 -239.08197819 100.77728406 -237.17578125 98.6328125 C-236.51578125 98.6328125 -235.85578125 98.6328125 -235.17578125 98.6328125 C-234.93859375 98.08109375 -234.70140625 97.529375 -234.45703125 96.9609375 C-232.86332982 94.06506539 -230.88660852 91.83769213 -228.67578125 89.3828125 C-227.4846875 88.04476562 -227.4846875 88.04476562 -226.26953125 86.6796875 C-224.17578125 84.6328125 -224.17578125 84.6328125 -222.17578125 84.6328125 C-221.90765625 83.9934375 -221.63953125 83.3540625 -221.36328125 82.6953125 C-220.17578125 80.6328125 -220.17578125 80.6328125 -217.17578125 79.6328125 C-217.17578125 78.9728125 -217.17578125 78.3128125 -217.17578125 77.6328125 C-215.58243886 76.19731524 -213.92327043 74.83453923 -212.23828125 73.5078125 C-208.7521588 70.72774017 -205.3675439 67.92963211 -202.11328125 64.8828125 C-172.15638137 38.10155572 -133.57492305 18.64611624 -96.17578125 4.6328125 C-95.43005859 4.35308594 -94.68433594 4.07335937 -93.91601562 3.78515625 C-81.28845365 -0.8700625 -68.38159614 -3.8459171 -55.17578125 -6.3671875 C-54.47404785 -6.50141113 -53.77231445 -6.63563477 -53.04931641 -6.77392578 C-36.56379135 -9.80972177 -14.07465492 -11.00532939 0 0 Z " fill="#DEB401" transform="translate(1225.17578125,543.3671875)"/>
<path d="M0 0 C0.60199219 0.53882813 1.20398437 1.07765625 1.82421875 1.6328125 C2.47777344 2.19226563 3.13132812 2.75171875 3.8046875 3.328125 C10.41348083 9.40548959 12.88723194 16.84539567 13.82421875 25.6328125 C14.20699038 52.19716333 -0.46032817 78.89110183 -14.765625 100.43359375 C-16.05896808 102.45063572 -17.15099685 104.46937876 -18.17578125 106.6328125 C-19.49578125 106.6328125 -20.81578125 106.6328125 -22.17578125 106.6328125 C-22.21445313 105.364375 -22.21445313 105.364375 -22.25390625 104.0703125 C-22.70394364 95.0695646 -23.69908149 88.61699492 -30.42578125 82.3203125 C-40.16288105 74.64739446 -52.84470154 74.89081104 -64.640625 75.94140625 C-73.09044304 77.01545511 -81.08418835 78.99691481 -89.17578125 81.6328125 C-90.408125 82.03113281 -91.64046875 82.42945313 -92.91015625 82.83984375 C-117.47305948 91.20896467 -144.9163982 107.2761629 -157.11328125 131.0078125 C-160.77591532 138.63105766 -161.82970912 147.26310948 -159.3046875 155.4609375 C-150.13634994 175.0601378 -126.95974567 181.43162898 -108.23388672 188.48095703 C-78.70630909 199.60271268 -78.70630909 199.60271268 -69.28125 204.15625 C-66.88092806 205.29753515 -64.48076568 206.37582528 -62.0390625 207.421875 C-51.00607112 212.16041104 -40.53995242 217.57230173 -30.17578125 223.6328125 C-29.5739502 223.9834375 -28.97211914 224.3340625 -28.35205078 224.6953125 C-14.27395845 232.95897919 -1.90044302 242.31300783 9.82421875 253.6328125 C10.82195312 254.53580078 10.82195312 254.53580078 11.83984375 255.45703125 C27.98954494 270.43701109 37.14151657 292.53342766 41.82421875 313.6328125 C42.05625 314.65761719 42.28828125 315.68242188 42.52734375 316.73828125 C44.84865989 328.22879615 45.00529665 340.01351114 45.01171875 351.6953125 C45.02396484 352.87158203 45.03621094 354.04785156 45.04882812 355.25976562 C45.06154666 362.92904455 44.31997131 370.11674226 42.82421875 377.6328125 C42.69942139 378.33462646 42.57462402 379.03644043 42.44604492 379.75952148 C36.46784113 412.84748671 17.79596301 442.97173412 -3.17578125 468.6328125 C-6.39937167 472.78291858 -6.39937167 472.78291858 -9.6171875 476.9375 C-10.13152344 477.49695313 -10.64585937 478.05640625 -11.17578125 478.6328125 C-11.83578125 478.6328125 -12.49578125 478.6328125 -13.17578125 478.6328125 C-13.38332031 479.16519531 -13.59085938 479.69757813 -13.8046875 480.24609375 C-15.73053125 483.59848843 -18.37795166 486.13055864 -21.11328125 488.8203125 C-21.6973877 489.39765137 -22.28149414 489.97499023 -22.88330078 490.56982422 C-38.60225846 505.92133685 -56.97484318 518.20851952 -76.23828125 528.6328125 C-76.96515137 529.03129395 -77.69202148 529.42977539 -78.44091797 529.84033203 C-79.12814941 530.20497559 -79.81538086 530.56961914 -80.5234375 530.9453125 C-81.13195557 531.27144531 -81.74047363 531.59757812 -82.36743164 531.93359375 C-84.17578125 532.6328125 -84.17578125 532.6328125 -88.17578125 532.6328125 C-86.56387679 528.82038679 -84.01041987 526.00613921 -81.30078125 522.9453125 C-70.65357369 510.58075605 -61.82250135 497.54652575 -55.17578125 482.6328125 C-54.86801758 481.95250977 -54.56025391 481.27220703 -54.24316406 480.57128906 C-38.31995834 445.01445454 -35.55589336 405.43321901 -49.23828125 368.6953125 C-55.98002075 351.52468231 -69.98576203 326.22782211 -87.17578125 317.6328125 C-87.17578125 316.9728125 -87.17578125 316.3128125 -87.17578125 315.6328125 C-87.706875 315.38660156 -88.23796875 315.14039063 -88.78515625 314.88671875 C-91.79580783 313.30760248 -94.59401444 311.44408481 -97.42578125 309.5703125 C-99.98796279 307.87547232 -102.55707575 306.23674694 -105.17578125 304.6328125 C-106.21081787 303.99762695 -107.24585449 303.36244141 -108.31225586 302.70800781 C-119.60531966 295.98131624 -131.5723525 291.00841255 -143.69381714 285.98028564 C-200.87564922 262.22529492 -200.87564922 262.22529492 -221.17578125 248.6328125 C-221.75489258 248.24851074 -222.33400391 247.86420898 -222.93066406 247.46826172 C-231.72822502 241.58350268 -239.55913675 234.97045904 -247.17578125 227.6328125 C-246.84578125 226.6428125 -246.51578125 225.6528125 -246.17578125 224.6328125 C-242.82689568 227.44124392 -239.57216938 230.21754874 -236.55078125 233.3828125 C-234.1467511 235.66031474 -232.30678635 236.64878232 -229.17578125 237.6328125 C-229.17578125 238.6228125 -229.17578125 239.6128125 -229.17578125 240.6328125 C-227.19578125 241.2928125 -225.21578125 241.9528125 -223.17578125 242.6328125 C-223.17578125 243.2928125 -223.17578125 243.9528125 -223.17578125 244.6328125 C-221.85578125 244.6328125 -220.53578125 244.6328125 -219.17578125 244.6328125 C-219.17578125 245.2928125 -219.17578125 245.9528125 -219.17578125 246.6328125 C-218.51578125 246.6328125 -217.85578125 246.6328125 -217.17578125 246.6328125 C-217.17578125 247.2928125 -217.17578125 247.9528125 -217.17578125 248.6328125 C-215.59796875 249.0040625 -215.59796875 249.0040625 -213.98828125 249.3828125 C-211.2235502 250.15385303 -210.10865048 250.69087155 -207.86328125 252.6328125 C-204.45255452 255.17102774 -201.54366472 255.44625976 -197.3828125 255.9453125 C-195.17578125 256.6328125 -195.17578125 256.6328125 -193.875 258.6953125 C-193.64425781 259.3346875 -193.41351562 259.9740625 -193.17578125 260.6328125 C-191.85578125 260.6328125 -190.53578125 260.6328125 -189.17578125 260.6328125 C-189.17578125 261.2928125 -189.17578125 261.9528125 -189.17578125 262.6328125 C-187.85578125 262.6328125 -186.53578125 262.6328125 -185.17578125 262.6328125 C-185.17578125 263.2928125 -185.17578125 263.9528125 -185.17578125 264.6328125 C-183.53609375 264.5709375 -183.53609375 264.5709375 -181.86328125 264.5078125 C-178.17578125 264.6328125 -178.17578125 264.6328125 -175.17578125 266.6328125 C-172.01293275 265.82876787 -172.01293275 265.82876787 -169.17578125 264.6328125 C-169.17578125 267.2728125 -169.17578125 269.9128125 -169.17578125 272.6328125 C-167.35046875 272.54 -167.35046875 272.54 -165.48828125 272.4453125 C-161.55537175 272.43141529 -159.41380768 273.31993648 -156.17578125 275.6328125 C-155.18578125 275.9628125 -154.19578125 276.2928125 -153.17578125 276.6328125 C-152.68078125 278.1178125 -152.68078125 278.1178125 -152.17578125 279.6328125 C-149.13503372 281.00906766 -149.13503372 281.00906766 -145.48828125 282.1328125 C-140.82238665 283.67004493 -136.55055876 285.40462596 -132.17578125 287.6328125 C-129.4400554 288.33188664 -129.4400554 288.33188664 -127.17578125 288.6328125 C-127.17578125 289.2928125 -127.17578125 289.9528125 -127.17578125 290.6328125 C-125.56703125 290.5709375 -125.56703125 290.5709375 -123.92578125 290.5078125 C-120.5186596 290.62138322 -118.91351358 290.73745935 -116.17578125 292.6328125 C-115.84578125 293.2928125 -115.51578125 293.9528125 -115.17578125 294.6328125 C-112.50186885 295.52411663 -109.93854302 296.11012784 -107.17578125 296.6328125 C-107.17578125 297.2928125 -107.17578125 297.9528125 -107.17578125 298.6328125 C-103.87578125 299.2928125 -100.57578125 299.9528125 -97.17578125 300.6328125 C-97.17578125 302.2828125 -97.17578125 303.9328125 -97.17578125 305.6328125 C-96.51578125 305.6328125 -95.85578125 305.6328125 -95.17578125 305.6328125 C-95.17578125 306.6228125 -95.17578125 307.6128125 -95.17578125 308.6328125 C-94.60085938 308.72949219 -94.0259375 308.82617188 -93.43359375 308.92578125 C-90.69380405 309.78374308 -89.19199127 311.04427623 -87.05078125 312.9453125 C-86.36757812 313.53957031 -85.684375 314.13382813 -84.98046875 314.74609375 C-83.18208492 316.6262223 -82.30304118 318.31817212 -81.17578125 320.6328125 C-79.22974851 321.22351264 -79.22974851 321.22351264 -77.17578125 321.6328125 C-75.42578125 323.0703125 -75.42578125 323.0703125 -74.17578125 324.6328125 C-74.17578125 325.2928125 -74.17578125 325.9528125 -74.17578125 326.6328125 C-73.03109375 326.54 -73.03109375 326.54 -71.86328125 326.4453125 C-69.17578125 326.6328125 -69.17578125 326.6328125 -67.42578125 327.9453125 C-66.17578125 329.6328125 -66.17578125 329.6328125 -65.17578125 332.6328125 C-64.51578125 332.6328125 -63.85578125 332.6328125 -63.17578125 332.6328125 C-63.17578125 333.9528125 -63.17578125 335.2728125 -63.17578125 336.6328125 C-62.51578125 336.6328125 -61.85578125 336.6328125 -61.17578125 336.6328125 C-59.05078125 338.3828125 -59.05078125 338.3828125 -57.17578125 340.6328125 C-57.17578125 341.9528125 -57.17578125 343.2728125 -57.17578125 344.6328125 C-56.51578125 344.6328125 -55.85578125 344.6328125 -55.17578125 344.6328125 C-55.17578125 345.2928125 -55.17578125 345.9528125 -55.17578125 346.6328125 C-54.51578125 346.6328125 -53.85578125 346.6328125 -53.17578125 346.6328125 C-50.46186847 351.40639122 -48.61016979 354.97669787 -49.17578125 360.6328125 C-48.51578125 360.6328125 -47.85578125 360.6328125 -47.17578125 360.6328125 C-47.17578125 361.2928125 -47.17578125 361.9528125 -47.17578125 362.6328125 C-46.51578125 362.6328125 -45.85578125 362.6328125 -45.17578125 362.6328125 C-43.85951433 366.25254652 -43.17578125 368.72848381 -43.17578125 372.6328125 C-42.51578125 372.6328125 -41.85578125 372.6328125 -41.17578125 372.6328125 C-41.17578125 376.5928125 -41.17578125 380.5528125 -41.17578125 384.6328125 C-40.51578125 384.6328125 -39.85578125 384.6328125 -39.17578125 384.6328125 C-39.17578125 385.9528125 -39.17578125 387.2728125 -39.17578125 388.6328125 C-38.51578125 388.6328125 -37.85578125 388.6328125 -37.17578125 388.6328125 C-37.12511716 396.53480291 -37.09006279 404.43675152 -37.06591797 412.33886719 C-37.05698222 415.02771625 -37.04305887 417.7164712 -37.02490234 420.40527344 C-37.00067369 424.26760563 -36.9893025 428.12979325 -36.98046875 431.9921875 C-36.97014618 433.196474 -36.95982361 434.4007605 -36.94918823 435.64154053 C-36.94903717 436.76240051 -36.94888611 437.8832605 -36.94873047 439.03808594 C-36.94428925 440.02403748 -36.93984802 441.00998901 -36.93527222 442.02581787 C-37.18254404 444.70611762 -37.80623442 446.34007332 -39.17578125 448.6328125 C-39.83578125 448.6328125 -40.49578125 448.6328125 -41.17578125 448.6328125 C-41.17578125 453.2528125 -41.17578125 457.8728125 -41.17578125 462.6328125 C-41.83578125 462.6328125 -42.49578125 462.6328125 -43.17578125 462.6328125 C-43.30855469 463.27089844 -43.44132812 463.90898438 -43.578125 464.56640625 C-43.75472656 465.39269531 -43.93132812 466.21898437 -44.11328125 467.0703125 C-44.28730469 467.89402344 -44.46132812 468.71773437 -44.640625 469.56640625 C-45.17578125 471.6328125 -45.17578125 471.6328125 -46.17578125 472.6328125 C-46.40796558 474.58979474 -46.64002128 476.54679242 -46.87109375 478.50390625 C-47.62148304 483.74701091 -49.02044371 487.25660075 -53.17578125 490.6328125 C-53.83578125 490.6328125 -54.49578125 490.6328125 -55.17578125 490.6328125 C-55.17578125 491.2928125 -55.17578125 491.9528125 -55.17578125 492.6328125 C-55.83578125 492.6328125 -56.49578125 492.6328125 -57.17578125 492.6328125 C-57.17578125 493.2928125 -57.17578125 493.9528125 -57.17578125 494.6328125 C-57.83578125 494.6328125 -58.49578125 494.6328125 -59.17578125 494.6328125 C-59.28986328 495.41011719 -59.28986328 495.41011719 -59.40625 496.203125 C-60.50465206 499.67117617 -62.49357707 502.50139436 -64.48828125 505.5078125 C-64.87951172 506.10722656 -65.27074219 506.70664063 -65.67382812 507.32421875 C-66.45313194 508.51579109 -67.2370902 509.70433352 -68.02587891 510.88964844 C-68.79496883 512.05552997 -69.54986805 513.23089258 -70.29052734 514.41503906 C-71.20189762 515.85413372 -72.183096 517.24855631 -73.17578125 518.6328125 C-73.83578125 518.6328125 -74.49578125 518.6328125 -75.17578125 518.6328125 C-75.17578125 519.6228125 -75.17578125 520.6128125 -75.17578125 521.6328125 C-75.50578125 521.9628125 -75.83578125 522.2928125 -76.17578125 522.6328125 C-73.86578125 522.6328125 -71.55578125 522.6328125 -69.17578125 522.6328125 C-69.17578125 521.9728125 -69.17578125 521.3128125 -69.17578125 520.6328125 C-68.51578125 520.6328125 -67.85578125 520.6328125 -67.17578125 520.6328125 C-67.17578125 519.9728125 -67.17578125 519.3128125 -67.17578125 518.6328125 C-66.51578125 518.6328125 -65.85578125 518.6328125 -65.17578125 518.6328125 C-65.17578125 517.9728125 -65.17578125 517.3128125 -65.17578125 516.6328125 C-61.9478657 514.4808688 -60.89177316 514.43194807 -57.17578125 514.6328125 C-57.17578125 513.9728125 -57.17578125 513.3128125 -57.17578125 512.6328125 C-55.85578125 512.6328125 -54.53578125 512.6328125 -53.17578125 512.6328125 C-53.17578125 511.9728125 -53.17578125 511.3128125 -53.17578125 510.6328125 C-52.51578125 510.6328125 -51.85578125 510.6328125 -51.17578125 510.6328125 C-51.17578125 509.9728125 -51.17578125 509.3128125 -51.17578125 508.6328125 C-45.76401654 504.6328125 -45.76401654 504.6328125 -43.17578125 504.6328125 C-43.17578125 503.9728125 -43.17578125 503.3128125 -43.17578125 502.6328125 C-42.51578125 502.6328125 -41.85578125 502.6328125 -41.17578125 502.6328125 C-41.17578125 501.9728125 -41.17578125 501.3128125 -41.17578125 500.6328125 C-39.19578125 499.9728125 -37.21578125 499.3128125 -35.17578125 498.6328125 C-35.17578125 497.3128125 -35.17578125 495.9928125 -35.17578125 494.6328125 C-34.51578125 494.6328125 -33.85578125 494.6328125 -33.17578125 494.6328125 C-32.92828125 494.0140625 -32.68078125 493.3953125 -32.42578125 492.7578125 C-30.96949486 490.28212563 -29.79765619 489.68156248 -27.17578125 488.6328125 C-27.17578125 487.9728125 -27.17578125 487.3128125 -27.17578125 486.6328125 C-26.51578125 486.6328125 -25.85578125 486.6328125 -25.17578125 486.6328125 C-25.17578125 485.9728125 -25.17578125 485.3128125 -25.17578125 484.6328125 C-23.85578125 484.6328125 -22.53578125 484.6328125 -21.17578125 484.6328125 C-21.17578125 483.3128125 -21.17578125 481.9928125 -21.17578125 480.6328125 C-19.85578125 480.6328125 -18.53578125 480.6328125 -17.17578125 480.6328125 C-17.17578125 479.3128125 -17.17578125 477.9928125 -17.17578125 476.6328125 C-16.18578125 476.6328125 -15.19578125 476.6328125 -14.17578125 476.6328125 C-13.84578125 475.3128125 -13.51578125 473.9928125 -13.17578125 472.6328125 C-12.51578125 472.6328125 -11.85578125 472.6328125 -11.17578125 472.6328125 C-11.17578125 471.9728125 -11.17578125 471.3128125 -11.17578125 470.6328125 C-10.51578125 470.6328125 -9.85578125 470.6328125 -9.17578125 470.6328125 C-9.17578125 469.9728125 -9.17578125 469.3128125 -9.17578125 468.6328125 C-8.51578125 468.6328125 -7.85578125 468.6328125 -7.17578125 468.6328125 C-7.17578125 467.6428125 -7.17578125 466.6528125 -7.17578125 465.6328125 C-6.51578125 465.6328125 -5.85578125 465.6328125 -5.17578125 465.6328125 C-5.17578125 464.6428125 -5.17578125 463.6528125 -5.17578125 462.6328125 C-4.51578125 462.6328125 -3.85578125 462.6328125 -3.17578125 462.6328125 C-3.17578125 461.9728125 -3.17578125 461.3128125 -3.17578125 460.6328125 C-2.51578125 460.6328125 -1.85578125 460.6328125 -1.17578125 460.6328125 C-1.23765625 459.8490625 -1.29953125 459.0653125 -1.36328125 458.2578125 C-1.30140625 457.3915625 -1.23953125 456.5253125 -1.17578125 455.6328125 C-0.18578125 454.9728125 0.80421875 454.3128125 1.82421875 453.6328125 C2.15421875 452.9728125 2.48421875 452.3128125 2.82421875 451.6328125 C3.48421875 451.9628125 4.14421875 452.2928125 4.82421875 452.6328125 C4.82421875 451.9728125 4.82421875 451.3128125 4.82421875 450.6328125 C5.48421875 450.6328125 6.14421875 450.6328125 6.82421875 450.6328125 C6.82421875 449.9728125 6.82421875 449.3128125 6.82421875 448.6328125 C7.48421875 448.6328125 8.14421875 448.6328125 8.82421875 448.6328125 C8.82421875 445.9928125 8.82421875 443.3528125 8.82421875 440.6328125 C10.14421875 440.6328125 11.46421875 440.6328125 12.82421875 440.6328125 C12.82421875 439.3128125 12.82421875 437.9928125 12.82421875 436.6328125 C13.48421875 436.6328125 14.14421875 436.6328125 14.82421875 436.6328125 C14.82421875 435.9728125 14.82421875 435.3128125 14.82421875 434.6328125 C15.48421875 434.6328125 16.14421875 434.6328125 16.82421875 434.6328125 C16.49421875 431.9928125 16.16421875 429.3528125 15.82421875 426.6328125 C18.47160791 425.172184 19.71870209 424.6328125 22.82421875 424.6328125 C22.82421875 423.3128125 22.82421875 421.9928125 22.82421875 420.6328125 C23.48421875 420.3028125 24.14421875 419.9728125 24.82421875 419.6328125 C24.82421875 417.3228125 24.82421875 415.0128125 24.82421875 412.6328125 C25.48421875 412.6328125 26.14421875 412.6328125 26.82421875 412.6328125 C26.96859375 412.0553125 27.11296875 411.4778125 27.26171875 410.8828125 C27.78255208 408.79947917 28.30338542 406.71614583 28.82421875 404.6328125 C29.48421875 404.6328125 30.14421875 404.6328125 30.82421875 404.6328125 C30.82421875 403.3128125 30.82421875 401.9928125 30.82421875 400.6328125 C31.48421875 400.6328125 32.14421875 400.6328125 32.82421875 400.6328125 C32.82421875 397.9928125 32.82421875 395.3528125 32.82421875 392.6328125 C33.48421875 392.6328125 34.14421875 392.6328125 34.82421875 392.6328125 C34.96859375 391.6840625 35.11296875 390.7353125 35.26171875 389.7578125 C35.82421875 386.6328125 35.82421875 386.6328125 36.82421875 384.6328125 C37.48421875 384.6328125 38.14421875 384.6328125 38.82421875 384.6328125 C38.82421875 380.6728125 38.82421875 376.7128125 38.82421875 372.6328125 C39.48421875 372.6328125 40.14421875 372.6328125 40.82421875 372.6328125 C40.49421875 358.1128125 40.16421875 343.5928125 39.82421875 328.6328125 C39.49421875 328.6328125 39.16421875 328.6328125 38.82421875 328.6328125 C38.82421875 325.9928125 38.82421875 323.3528125 38.82421875 320.6328125 C38.16421875 320.6328125 37.50421875 320.6328125 36.82421875 320.6328125 C36.49421875 317.6628125 36.16421875 314.6928125 35.82421875 311.6328125 C36.48421875 311.6328125 37.14421875 311.6328125 37.82421875 311.6328125 C37.49421875 309.3228125 37.16421875 307.0128125 36.82421875 304.6328125 C36.16421875 304.6328125 35.50421875 304.6328125 34.82421875 304.6328125 C34.82421875 302.6528125 34.82421875 300.6728125 34.82421875 298.6328125 C34.16421875 298.6328125 33.50421875 298.6328125 32.82421875 298.6328125 C30.73071186 295.2308638 30.64479712 292.58008838 30.82421875 288.6328125 C30.16421875 288.6328125 29.50421875 288.6328125 28.82421875 288.6328125 C28.82421875 287.9728125 28.82421875 287.3128125 28.82421875 286.6328125 C28.16421875 286.6328125 27.50421875 286.6328125 26.82421875 286.6328125 C26.82421875 285.3128125 26.82421875 283.9928125 26.82421875 282.6328125 C26.16421875 282.6328125 25.50421875 282.6328125 24.82421875 282.6328125 C24.82421875 280.9828125 24.82421875 279.3328125 24.82421875 277.6328125 C24.16421875 277.3028125 23.50421875 276.9728125 22.82421875 276.6328125 C22.52773437 275.88386719 22.23125 275.13492187 21.92578125 274.36328125 C20.72762831 271.39339151 19.23105424 269.40776333 17.19921875 266.9453125 C13.82421875 262.84709821 13.82421875 262.84709821 13.82421875 260.6328125 C12.87546875 260.3853125 11.92671875 260.1378125 10.94921875 259.8828125 C7.82421875 258.6328125 7.82421875 258.6328125 6.44921875 256.5078125 C6.24296875 255.8890625 6.03671875 255.2703125 5.82421875 254.6328125 C5.16421875 254.6328125 4.50421875 254.6328125 3.82421875 254.6328125 C3.82421875 253.9728125 3.82421875 253.3128125 3.82421875 252.6328125 C2.83421875 252.3028125 1.84421875 251.9728125 0.82421875 251.6328125 C0.82421875 250.6428125 0.82421875 249.6528125 0.82421875 248.6328125 C0.16421875 248.6328125 -0.49578125 248.6328125 -1.17578125 248.6328125 C-1.17578125 247.9728125 -1.17578125 247.3128125 -1.17578125 246.6328125 C-1.83578125 246.6328125 -2.49578125 246.6328125 -3.17578125 246.6328125 C-3.17578125 245.9728125 -3.17578125 245.3128125 -3.17578125 244.6328125 C-4.16578125 244.3028125 -5.15578125 243.9728125 -6.17578125 243.6328125 C-6.17578125 242.9728125 -6.17578125 242.3128125 -6.17578125 241.6328125 C-7.11550781 241.59414063 -7.11550781 241.59414063 -8.07421875 241.5546875 C-8.89148437 241.49796875 -9.70875 241.44125 -10.55078125 241.3828125 C-11.36289063 241.33640625 -12.175 241.29 -13.01171875 241.2421875 C-15.17578125 240.6328125 -15.17578125 240.6328125 -16.46484375 238.5859375 C-16.69945312 237.94140625 -16.9340625 237.296875 -17.17578125 236.6328125 C-17.83578125 236.6328125 -18.49578125 236.6328125 -19.17578125 236.6328125 C-19.17578125 235.9728125 -19.17578125 235.3128125 -19.17578125 234.6328125 C-20.49578125 234.6328125 -21.81578125 234.6328125 -23.17578125 234.6328125 C-23.83578125 233.6428125 -24.49578125 232.6528125 -25.17578125 231.6328125 C-27.58063923 230.18859024 -27.58063923 230.18859024 -30.30078125 228.9453125 C-31.21085937 228.50832031 -32.1209375 228.07132813 -33.05859375 227.62109375 C-33.75726562 227.29496094 -34.4559375 226.96882812 -35.17578125 226.6328125 C-35.17578125 225.9728125 -35.17578125 225.3128125 -35.17578125 224.6328125 C-35.83578125 224.6328125 -36.49578125 224.6328125 -37.17578125 224.6328125 C-37.17578125 223.9728125 -37.17578125 223.3128125 -37.17578125 222.6328125 C-38.49578125 222.6328125 -39.81578125 222.6328125 -41.17578125 222.6328125 C-41.17578125 221.9728125 -41.17578125 221.3128125 -41.17578125 220.6328125 C-42.49578125 220.6328125 -43.81578125 220.6328125 -45.17578125 220.6328125 C-45.17578125 219.9728125 -45.17578125 219.3128125 -45.17578125 218.6328125 C-46.49578125 218.6328125 -47.81578125 218.6328125 -49.17578125 218.6328125 C-49.17578125 217.9728125 -49.17578125 217.3128125 -49.17578125 216.6328125 C-50.00078125 216.5296875 -50.82578125 216.4265625 -51.67578125 216.3203125 C-55.76867137 215.51635194 -59.3011835 214.16929092 -63.17578125 212.6328125 C-63.17578125 211.9728125 -63.17578125 211.3128125 -63.17578125 210.6328125 C-63.83578125 210.6328125 -64.49578125 210.6328125 -65.17578125 210.6328125 C-65.17578125 209.9728125 -65.17578125 209.3128125 -65.17578125 208.6328125 C-66.49578125 208.6328125 -67.81578125 208.6328125 -69.17578125 208.6328125 C-69.17578125 207.9728125 -69.17578125 207.3128125 -69.17578125 206.6328125 C-70.41328125 206.6740625 -71.65078125 206.7153125 -72.92578125 206.7578125 C-76.19216087 206.76939541 -78.39047595 206.4896827 -81.17578125 204.6328125 C-81.17578125 203.9728125 -81.17578125 203.3128125 -81.17578125 202.6328125 C-82.49578125 202.6328125 -83.81578125 202.6328125 -85.17578125 202.6328125 C-85.17578125 201.9728125 -85.17578125 201.3128125 -85.17578125 200.6328125 C-86.49578125 200.6328125 -87.81578125 200.6328125 -89.17578125 200.6328125 C-89.17578125 199.9728125 -89.17578125 199.3128125 -89.17578125 198.6328125 C-91.15578125 198.6328125 -93.13578125 198.6328125 -95.17578125 198.6328125 C-95.17578125 197.9728125 -95.17578125 197.3128125 -95.17578125 196.6328125 C-97.81578125 196.6328125 -100.45578125 196.6328125 -103.17578125 196.6328125 C-103.17578125 195.9728125 -103.17578125 195.3128125 -103.17578125 194.6328125 C-103.83578125 194.6328125 -104.49578125 194.6328125 -105.17578125 194.6328125 C-105.17578125 193.9728125 -105.17578125 193.3128125 -105.17578125 192.6328125 C-106.49578125 192.6328125 -107.81578125 192.6328125 -109.17578125 192.6328125 C-109.17578125 191.9728125 -109.17578125 191.3128125 -109.17578125 190.6328125 C-109.71203125 190.8184375 -110.24828125 191.0040625 -110.80078125 191.1953125 C-113.79568739 191.74700574 -116.21323954 191.23878694 -119.17578125 190.6328125 C-119.17578125 189.9728125 -119.17578125 189.3128125 -119.17578125 188.6328125 C-120.49578125 188.6328125 -121.81578125 188.6328125 -123.17578125 188.6328125 C-123.17578125 187.9728125 -123.17578125 187.3128125 -123.17578125 186.6328125 C-125.15578125 186.6328125 -127.13578125 186.6328125 -129.17578125 186.6328125 C-129.17578125 185.9728125 -129.17578125 185.3128125 -129.17578125 184.6328125 C-130.49578125 184.6328125 -131.81578125 184.6328125 -133.17578125 184.6328125 C-133.17578125 183.9728125 -133.17578125 183.3128125 -133.17578125 182.6328125 C-134.49578125 182.3028125 -135.81578125 181.9728125 -137.17578125 181.6328125 C-137.17578125 180.9728125 -137.17578125 180.3128125 -137.17578125 179.6328125 C-138.49578125 179.3028125 -139.81578125 178.9728125 -141.17578125 178.6328125 C-141.17578125 177.9728125 -141.17578125 177.3128125 -141.17578125 176.6328125 C-142.49578125 176.6328125 -143.81578125 176.6328125 -145.17578125 176.6328125 C-145.17578125 175.9728125 -145.17578125 175.3128125 -145.17578125 174.6328125 C-146.04203125 174.478125 -146.04203125 174.478125 -146.92578125 174.3203125 C-149.5570514 173.51631329 -151.16266218 172.50213735 -153.17578125 170.6328125 C-153.17578125 169.6428125 -153.17578125 168.6528125 -153.17578125 167.6328125 C-153.83578125 167.6328125 -154.49578125 167.6328125 -155.17578125 167.6328125 C-156.5285624 165.64591519 -157.8614643 163.64536032 -159.17578125 161.6328125 C-159.83578125 161.3028125 -160.49578125 160.9728125 -161.17578125 160.6328125 C-161.17578125 159.3128125 -161.17578125 157.9928125 -161.17578125 156.6328125 C-161.83578125 156.6328125 -162.49578125 156.6328125 -163.17578125 156.6328125 C-163.17578125 155.9728125 -163.17578125 155.3128125 -163.17578125 154.6328125 C-163.83578125 154.6328125 -164.49578125 154.6328125 -165.17578125 154.6328125 C-165.17578125 149.3528125 -165.17578125 144.0728125 -165.17578125 138.6328125 C-164.51578125 138.6328125 -163.85578125 138.6328125 -163.17578125 138.6328125 C-163.17578125 135.3328125 -163.17578125 132.0328125 -163.17578125 128.6328125 C-162.18578125 128.6328125 -161.19578125 128.6328125 -160.17578125 128.6328125 C-160.13453125 127.8903125 -160.09328125 127.1478125 -160.05078125 126.3828125 C-158.82048095 122.51615443 -156.58191459 121.67649251 -153.17578125 119.6328125 C-150.57958166 117.48423353 -149.74896081 115.95725394 -149.17578125 112.6328125 C-147.85578125 112.6328125 -146.53578125 112.6328125 -145.17578125 112.6328125 C-145.17578125 110.9828125 -145.17578125 109.3328125 -145.17578125 107.6328125 C-144.18578125 107.3028125 -143.19578125 106.9728125 -142.17578125 106.6328125 C-141.84578125 105.9728125 -141.51578125 105.3128125 -141.17578125 104.6328125 C-140.51578125 104.6328125 -139.85578125 104.6328125 -139.17578125 104.6328125 C-139.17578125 103.9728125 -139.17578125 103.3128125 -139.17578125 102.6328125 C-138.51578125 102.6328125 -137.85578125 102.6328125 -137.17578125 102.6328125 C-136.51578125 100.6528125 -135.85578125 98.6728125 -135.17578125 96.6328125 C-133.19578125 96.6328125 -131.21578125 96.6328125 -129.17578125 96.6328125 C-129.17578125 95.3128125 -129.17578125 93.9928125 -129.17578125 92.6328125 C-128.51578125 92.6328125 -127.85578125 92.6328125 -127.17578125 92.6328125 C-127.17578125 91.9728125 -127.17578125 91.3128125 -127.17578125 90.6328125 C-125.93828125 90.3028125 -124.70078125 89.9728125 -123.42578125 89.6328125 C-122.7296875 89.4471875 -122.03359375 89.2615625 -121.31640625 89.0703125 C-119.17578125 88.6328125 -119.17578125 88.6328125 -115.17578125 88.6328125 C-115.17578125 87.9728125 -115.17578125 87.3128125 -115.17578125 86.6328125 C-113.85578125 86.6328125 -112.53578125 86.6328125 -111.17578125 86.6328125 C-111.17578125 85.9728125 -111.17578125 85.3128125 -111.17578125 84.6328125 C-108.86578125 84.6328125 -106.55578125 84.6328125 -104.17578125 84.6328125 C-103.84578125 83.3128125 -103.51578125 81.9928125 -103.17578125 80.6328125 C-102.22703125 80.5296875 -101.27828125 80.4265625 -100.30078125 80.3203125 C-96.88470624 79.94741955 -96.88470624 79.94741955 -95.17578125 76.6328125 C-92.05078125 76.4453125 -92.05078125 76.4453125 -89.17578125 76.6328125 C-89.17578125 75.9728125 -89.17578125 75.3128125 -89.17578125 74.6328125 C-84.41270688 73.68019763 -80.00912845 73.54947893 -75.17578125 73.6328125 C-75.17578125 73.3028125 -75.17578125 72.9728125 -75.17578125 72.6328125 C-71.21578125 72.6328125 -67.25578125 72.6328125 -63.17578125 72.6328125 C-63.17578125 71.9728125 -63.17578125 71.3128125 -63.17578125 70.6328125 C-57.56578125 70.6328125 -51.95578125 70.6328125 -46.17578125 70.6328125 C-45.84578125 71.2928125 -45.51578125 71.9528125 -45.17578125 72.6328125 C-42.8267025 73.32212594 -42.8267025 73.32212594 -40.11328125 73.7578125 C-39.19417969 73.92539062 -38.27507812 74.09296875 -37.328125 74.265625 C-36.26271484 74.44738281 -36.26271484 74.44738281 -35.17578125 74.6328125 C-35.17578125 75.2928125 -35.17578125 75.9528125 -35.17578125 76.6328125 C-33.85578125 76.6328125 -32.53578125 76.6328125 -31.17578125 76.6328125 C-31.17578125 77.2928125 -31.17578125 77.9528125 -31.17578125 78.6328125 C-30.51578125 78.6328125 -29.85578125 78.6328125 -29.17578125 78.6328125 C-29.17578125 79.2928125 -29.17578125 79.9528125 -29.17578125 80.6328125 C-27.85578125 80.6328125 -26.53578125 80.6328125 -25.17578125 80.6328125 C-25.17578125 81.2928125 -25.17578125 81.9528125 -25.17578125 82.6328125 C-24.51578125 82.6328125 -23.85578125 82.6328125 -23.17578125 82.6328125 C-23.17578125 83.2928125 -23.17578125 83.9528125 -23.17578125 84.6328125 C-22.51578125 84.6328125 -21.85578125 84.6328125 -21.17578125 84.6328125 C-20.18578125 88.5928125 -19.19578125 92.5528125 -18.17578125 96.6328125 C-17.18578125 96.6328125 -16.19578125 96.6328125 -15.17578125 96.6328125 C-15.17578125 94.6528125 -15.17578125 92.6728125 -15.17578125 90.6328125 C-14.18578125 90.6328125 -13.19578125 90.6328125 -12.17578125 90.6328125 C-11.84578125 88.6528125 -11.51578125 86.6728125 -11.17578125 84.6328125 C-10.51578125 84.6328125 -9.85578125 84.6328125 -9.17578125 84.6328125 C-9.17578125 83.9728125 -9.17578125 83.3128125 -9.17578125 82.6328125 C-8.51578125 82.6328125 -7.85578125 82.6328125 -7.17578125 82.6328125 C-7.03140625 81.7253125 -6.88703125 80.8178125 -6.73828125 79.8828125 C-6.31168652 77.41804294 -5.82503904 75.04434143 -5.17578125 72.6328125 C-4.51578125 72.6328125 -3.85578125 72.6328125 -3.17578125 72.6328125 C-3.17578125 71.9728125 -3.17578125 71.3128125 -3.17578125 70.6328125 C-2.51578125 70.6328125 -1.85578125 70.6328125 -1.17578125 70.6328125 C-1.23765625 69.3953125 -1.29953125 68.1578125 -1.36328125 66.8828125 C-1.37656187 63.11111721 -0.72430711 61.48716146 1.82421875 58.6328125 C2.52936721 56.48547323 2.52936721 56.48547323 2.82421875 54.6328125 C3.81421875 54.6328125 4.80421875 54.6328125 5.82421875 54.6328125 C5.89769531 53.35083984 5.89769531 53.35083984 5.97265625 52.04296875 C6.04742188 50.93824219 6.1221875 49.83351563 6.19921875 48.6953125 C6.26882813 47.59316406 6.3384375 46.49101563 6.41015625 45.35546875 C6.54679687 44.45699219 6.6834375 43.55851563 6.82421875 42.6328125 C7.48421875 42.3028125 8.14421875 41.9728125 8.82421875 41.6328125 C10.81425916 32.67763068 10.47863838 23.37678306 7.82421875 14.6328125 C7.48426983 13.30115052 7.1492771 11.96818734 6.82421875 10.6328125 C6.16421875 10.6328125 5.50421875 10.6328125 4.82421875 10.6328125 C4.82421875 9.9728125 4.82421875 9.3128125 4.82421875 8.6328125 C4.16421875 8.6328125 3.50421875 8.6328125 2.82421875 8.6328125 C2.82421875 7.3128125 2.82421875 5.9928125 2.82421875 4.6328125 C0.84421875 3.9728125 -1.13578125 3.3128125 -3.17578125 2.6328125 C-3.17578125 1.9728125 -3.17578125 1.3128125 -3.17578125 0.6328125 C-4.49578125 0.6328125 -5.81578125 0.6328125 -7.17578125 0.6328125 C-7.17578125 -0.0271875 -7.17578125 -0.6871875 -7.17578125 -1.3671875 C-13.11578125 -2.0271875 -19.05578125 -2.6871875 -25.17578125 -3.3671875 C-25.17578125 -4.0271875 -25.17578125 -4.6871875 -25.17578125 -5.3671875 C-29.79578125 -5.0371875 -34.41578125 -4.7071875 -39.17578125 -4.3671875 C-39.17578125 -4.0371875 -39.17578125 -3.7071875 -39.17578125 -3.3671875 C-45.11578125 -3.3671875 -51.05578125 -3.3671875 -57.17578125 -3.3671875 C-57.17578125 -2.7071875 -57.17578125 -2.0471875 -57.17578125 -1.3671875 C-59.81578125 -1.3671875 -62.45578125 -1.3671875 -65.17578125 -1.3671875 C-65.17578125 -0.7071875 -65.17578125 -0.0471875 -65.17578125 0.6328125 C-67.81578125 0.6328125 -70.45578125 0.6328125 -73.17578125 0.6328125 C-73.50578125 1.9528125 -73.83578125 3.2728125 -74.17578125 4.6328125 C-79.12578125 4.6328125 -84.07578125 4.6328125 -89.17578125 4.6328125 C-89.17578125 5.2928125 -89.17578125 5.9528125 -89.17578125 6.6328125 C-89.76746094 6.74238281 -90.35914063 6.85195313 -90.96875 6.96484375 C-95.66331064 7.90681921 -99.10655829 9.03303116 -103.17578125 11.6328125 C-104.02140625 11.7771875 -104.86703125 11.9215625 -105.73828125 12.0703125 C-108.8714467 12.79335068 -109.97237875 14.3583325 -112.17578125 16.6328125 C-113.50684747 16.97508667 -114.83978204 17.31032993 -116.17578125 17.6328125 C-116.50578125 18.6228125 -116.83578125 19.6128125 -117.17578125 20.6328125 C-121.46578125 21.2928125 -125.75578125 21.9528125 -130.17578125 22.6328125 C-130.17578125 23.2928125 -130.17578125 23.9528125 -130.17578125 24.6328125 C-131.24828125 24.7771875 -132.32078125 24.9215625 -133.42578125 25.0703125 C-136.09241074 25.47030692 -138.58977854 25.90873174 -141.17578125 26.6328125 C-141.17578125 27.2928125 -141.17578125 27.9528125 -141.17578125 28.6328125 C-142.01882813 29.04273438 -142.861875 29.45265625 -143.73046875 29.875 C-144.82617188 30.41382813 -145.921875 30.95265625 -147.05078125 31.5078125 C-148.14132812 32.04148437 -149.231875 32.57515625 -150.35546875 33.125 C-153.21460672 34.47817187 -153.21460672 34.47817187 -155.17578125 36.6328125 C-154.84578125 37.2928125 -154.51578125 37.9528125 -154.17578125 38.6328125 C-156.48578125 38.6328125 -158.79578125 38.6328125 -161.17578125 38.6328125 C-161.17578125 39.2928125 -161.17578125 39.9528125 -161.17578125 40.6328125 C-161.83578125 40.6328125 -162.49578125 40.6328125 -163.17578125 40.6328125 C-163.17578125 41.2928125 -163.17578125 41.9528125 -163.17578125 42.6328125 C-164.49578125 42.6328125 -165.81578125 42.6328125 -167.17578125 42.6328125 C-167.17578125 43.2928125 -167.17578125 43.9528125 -167.17578125 44.6328125 C-167.83578125 44.6328125 -168.49578125 44.6328125 -169.17578125 44.6328125 C-169.50578125 45.6228125 -169.83578125 46.6128125 -170.17578125 47.6328125 C-171.82578125 47.9628125 -173.47578125 48.2928125 -175.17578125 48.6328125 C-175.17578125 49.9528125 -175.17578125 51.2728125 -175.17578125 52.6328125 C-177.17578125 54.6328125 -177.17578125 54.6328125 -179.80078125 54.7578125 C-180.58453125 54.7165625 -181.36828125 54.6753125 -182.17578125 54.6328125 C-182.17578125 55.2928125 -182.17578125 55.9528125 -182.17578125 56.6328125 C-185.64078125 57.6228125 -185.64078125 57.6228125 -189.17578125 58.6328125 C-189.17578125 59.2928125 -189.17578125 59.9528125 -189.17578125 60.6328125 C-189.83578125 60.6328125 -190.49578125 60.6328125 -191.17578125 60.6328125 C-191.42328125 61.2103125 -191.67078125 61.7878125 -191.92578125 62.3828125 C-193.35878113 64.96221229 -194.96002801 66.69402842 -197.17578125 68.6328125 C-197.83578125 68.6328125 -198.49578125 68.6328125 -199.17578125 68.6328125 C-199.17578125 69.2928125 -199.17578125 69.9528125 -199.17578125 70.6328125 C-202.08178386 71.88946228 -203.97182709 72.6328125 -207.17578125 72.6328125 C-207.17578125 73.2928125 -207.17578125 73.9528125 -207.17578125 74.6328125 C-207.83578125 74.6328125 -208.49578125 74.6328125 -209.17578125 74.6328125 C-209.83578125 76.6128125 -210.49578125 78.5928125 -211.17578125 80.6328125 C-211.95953125 80.5709375 -212.74328125 80.5090625 -213.55078125 80.4453125 C-214.85015625 80.538125 -214.85015625 80.538125 -216.17578125 80.6328125 C-216.83578125 81.6228125 -217.49578125 82.6128125 -218.17578125 83.6328125 C-218.83578125 83.6328125 -219.49578125 83.6328125 -220.17578125 83.6328125 C-220.40265625 84.1896875 -220.62953125 84.7465625 -220.86328125 85.3203125 C-222.55128161 88.29440838 -224.64254642 90.35290115 -227.17578125 92.6328125 C-227.83578125 92.6328125 -228.49578125 92.6328125 -229.17578125 92.6328125 C-228.63490807 88.84670023 -227.05855793 87.07880483 -224.17578125 84.6328125 C-223.51578125 84.6328125 -222.85578125 84.6328125 -222.17578125 84.6328125 C-221.90765625 83.9934375 -221.63953125 83.3540625 -221.36328125 82.6953125 C-220.17578125 80.6328125 -220.17578125 80.6328125 -217.17578125 79.6328125 C-217.17578125 78.9728125 -217.17578125 78.3128125 -217.17578125 77.6328125 C-215.58243886 76.19731524 -213.92327043 74.83453923 -212.23828125 73.5078125 C-208.7521588 70.72774017 -205.3675439 67.92963211 -202.11328125 64.8828125 C-172.15638137 38.10155572 -133.57492305 18.64611624 -96.17578125 4.6328125 C-95.43005859 4.35308594 -94.68433594 4.07335937 -93.91601562 3.78515625 C-81.28845365 -0.8700625 -68.38159614 -3.8459171 -55.17578125 -6.3671875 C-54.47404785 -6.50141113 -53.77231445 -6.63563477 -53.04931641 -6.77392578 C-36.56379135 -9.80972177 -14.07465492 -11.00532939 0 0 Z " fill="#D9B729" transform="translate(1225.17578125,543.3671875)"/>
<path d="M0 0 C0.99 0.33 1.98 0.66 3 1 C2.67 1.66 2.34 2.32 2 3 C1.01 3 0.02 3 -1 3 C-1 5.31 -1 7.62 -1 10 C-1.495 9.01 -1.495 9.01 -2 8 C-5.23107214 11.05321496 -7.73814654 14.57595243 -10.37890625 18.13671875 C-10.91386719 18.75160156 -11.44882812 19.36648438 -12 20 C-12.66 20 -13.32 20 -14 20 C-14.09152344 20.52078125 -14.18304687 21.0415625 -14.27734375 21.578125 C-15.26126252 24.87558251 -16.90140166 27.75673368 -18.5625 30.75 C-18.89185547 31.35199219 -19.22121094 31.95398438 -19.56054688 32.57421875 C-20.3696465 34.05170503 -21.18427662 35.52616036 -22 37 C-22.66 37 -23.32 37 -24 37 C-24.11214844 37.68964844 -24.22429688 38.37929688 -24.33984375 39.08984375 C-25.35672341 43.57253813 -27.20815821 47.69421204 -28.94140625 51.94140625 C-30.21804607 55.090566 -30.21804607 55.090566 -30 59 C-30.66 59 -31.32 59 -32 59 C-33.26029078 67.360679 -34.19501911 75.59692699 -34.1875 84.0625 C-34.18814453 84.75142334 -34.18878906 85.44034668 -34.18945312 86.15014648 C-34.14265375 90.52854745 -33.70049566 94.69055073 -33 99 C-32.34 99 -31.68 99 -31 99 C-30.938125 100.299375 -30.87625 101.59875 -30.8125 102.9375 C-30.31094133 107.74030428 -28.58692832 111.09125111 -26.05859375 115.15234375 C-25 117 -25 117 -25 119 C-24.34 119 -23.68 119 -23 119 C-21.78125 120.609375 -21.78125 120.609375 -20.5 122.75 C-19.86578125 123.79414062 -19.86578125 123.79414062 -19.21875 124.859375 C-18.0708065 126.87563473 -17.01478374 128.91405565 -16 131 C-24.34315974 127.69981681 -28.88268642 116.79016494 -32.67578125 109.21484375 C-40.6993421 89.7358155 -38.66071075 68.26530002 -31 49 C-30.71672852 48.2668457 -30.43345703 47.53369141 -30.14160156 46.77832031 C-26.66701373 37.90677818 -22.34639244 29.89836974 -17 22 C-16.05738451 20.44058071 -15.11936767 18.87836562 -14.1875 17.3125 C-13.1046875 15.6728125 -13.1046875 15.6728125 -12 14 C-11.34 14 -10.68 14 -10 14 C-9.731875 13.2575 -9.46375 12.515 -9.1875 11.75 C-8.04723249 9.10938051 -6.90619694 7.14447156 -5 5 C-4.34 5 -3.68 5 -3 5 C-2.690625 4.360625 -2.38125 3.72125 -2.0625 3.0625 C-1 1 -1 1 0 0 Z " fill="#E0C03C" transform="translate(993,637)"/>
<path d="M0 0 C0.495 0.99 0.495 0.99 1 2 C0.0625 4.625 0.0625 4.625 -1 7 C-1.66 7 -2.32 7 -3 7 C-3.103125 7.845625 -3.20625 8.69125 -3.3125 9.5625 C-4.0828854 13.41442701 -5.36274514 16.44075031 -7 20 C-7.66 20 -8.32 20 -9 20 C-9.07605469 20.51820312 -9.15210938 21.03640625 -9.23046875 21.5703125 C-10.32887081 25.03836367 -12.31779582 27.86858186 -14.3125 30.875 C-14.70373047 31.47441406 -15.09496094 32.07382813 -15.49804688 32.69140625 C-16.27735069 33.88297859 -17.06130895 35.07152102 -17.85009766 36.25683594 C-18.61918758 37.42271747 -19.3740868 38.59808008 -20.11474609 39.78222656 C-21.02611637 41.22132122 -22.00731475 42.61574381 -23 44 C-23.66 44 -24.32 44 -25 44 C-25 44.99 -25 45.98 -25 47 C-27.5 49.6875 -27.5 49.6875 -30 52 C-29.01 52.33 -28.02 52.66 -27 53 C-27 52.34 -27 51.68 -27 51 C-24.525 50.505 -24.525 50.505 -22 50 C-22 50.66 -22 51.32 -22 52 C-23.91149668 53.0098473 -25.82941569 54.00754495 -27.75 55 C-28.81734375 55.556875 -29.8846875 56.11375 -30.984375 56.6875 C-34 58 -34 58 -38 58 C-36.38809554 54.18757429 -33.83463862 51.37332671 -31.125 48.3125 C-19.53559286 34.85377122 -10.1234727 20.58084648 -3.41015625 4.1015625 C-2 1 -2 1 0 0 Z " fill="#DEC142" transform="translate(1175,1018)"/>
<path d="M0 0 C0.50442627 0.44972168 1.00885254 0.89944336 1.52856445 1.36279297 C6.48331408 6.09496103 8.58787835 10.87544765 8.86328125 17.6484375 C8.86196582 19.4532039 8.84472284 21.2580208 8.8125 23.0625 C8.81572266 23.95710937 8.81894531 24.85171875 8.82226562 25.7734375 C8.77500552 31.68524696 7.96384165 36.96043825 6.5 42.6875 C5.55784782 39.44928807 5.69017419 37.20074343 6.234375 33.87109375 C7.16614344 26.21140908 6.73450738 19.04823019 4.5 11.6875 C4.16005108 10.35583802 3.82505835 9.02287484 3.5 7.6875 C2.84 7.6875 2.18 7.6875 1.5 7.6875 C1.5 7.0275 1.5 6.3675 1.5 5.6875 C0.84 5.6875 0.18 5.6875 -0.5 5.6875 C-0.5 4.3675 -0.5 3.0475 -0.5 1.6875 C-2.48 1.0275 -4.46 0.3675 -6.5 -0.3125 C-6.5 -0.9725 -6.5 -1.6325 -6.5 -2.3125 C-7.82 -2.3125 -9.14 -2.3125 -10.5 -2.3125 C-10.5 -2.9725 -10.5 -3.6325 -10.5 -4.3125 C-16.44 -4.9725 -22.38 -5.6325 -28.5 -6.3125 C-28.5 -6.9725 -28.5 -7.6325 -28.5 -8.3125 C-34.77 -8.3125 -41.04 -8.3125 -47.5 -8.3125 C-47.5 -8.6425 -47.5 -8.9725 -47.5 -9.3125 C-44.18812351 -9.51227261 -40.87550624 -9.69501777 -37.5625 -9.875 C-36.63630859 -9.93107422 -35.71011719 -9.98714844 -34.75585938 -10.04492188 C-21.44557362 -10.74546323 -10.17998121 -9.16306986 0 0 Z " fill="#DCB831" transform="translate(1228.5,546.3125)"/>
<path d="M0 0 C5.28 0 10.56 0 16 0 C16 0.66 16 1.32 16 2 C16.88042969 1.97679687 17.76085938 1.95359375 18.66796875 1.9296875 C19.82941406 1.91164063 20.99085937 1.89359375 22.1875 1.875 C23.33605469 1.85179687 24.48460937 1.82859375 25.66796875 1.8046875 C28.91740372 1.99515848 31.08660521 2.60639873 34 4 C34 4.66 34 5.32 34 6 C35.32 6 36.64 6 38 6 C38 6.66 38 7.32 38 8 C39.32 8 40.64 8 42 8 C42 8.66 42 9.32 42 10 C42.66 10 43.32 10 44 10 C44 11.32 44 12.64 44 14 C42.02 13.34 40.04 12.68 38 12 C38 11.34 38 10.68 38 10 C36.68 10 35.36 10 34 10 C34 9.34 34 8.68 34 8 C33.34 8 32.68 8 32 8 C32 7.01 32 6.02 32 5 C30.02 4.67 28.04 4.34 26 4 C26 4.66 26 5.32 26 6 C20.06 5.01 20.06 5.01 14 4 C14 4.66 14 5.32 14 6 C11.36 5.34 8.72 4.68 6 4 C6 3.34 6 2.68 6 2 C5.34 2 4.68 2 4 2 C4 2.66 4 3.32 4 4 C-2.6 4.33 -9.2 4.66 -16 5 C-16 4.01 -16 3.02 -16 2 C-8.08 1.505 -8.08 1.505 0 1 C0 0.67 0 0.34 0 0 Z " fill="#DCB30F" transform="translate(1184,538)"/>
<path d="M0 0 C0.66 0 1.32 0 2 0 C1.67 2.97 1.34 5.94 1 9 C-0.65 9.33 -2.3 9.66 -4 10 C-4 10.66 -4 11.32 -4 12 C-4.66 12 -5.32 12 -6 12 C-6.33 13.98 -6.66 15.96 -7 18 C-5.02 18 -3.04 18 -1 18 C-0.34 16.68 0.32 15.36 1 14 C1.99 14 2.98 14 4 14 C4 13.34 4 12.68 4 12 C5.98 12 7.96 12 10 12 C10.33 12.66 10.66 13.32 11 14 C10.01 14 9.02 14 8 14 C8 14.66 8 15.32 8 16 C7.34 16 6.68 16 6 16 C6 16.66 6 17.32 6 18 C4.68 18 3.36 18 2 18 C2 18.66 2 19.32 2 20 C-1.08809695 21.76462683 -2.23312136 22 -6 22 C-6 22.66 -6 23.32 -6 24 C-6.66 24 -7.32 24 -8 24 C-8 24.66 -8 25.32 -8 26 C-8.66 26 -9.32 26 -10 26 C-10 26.66 -10 27.32 -10 28 C-11.670625 28.2165625 -11.670625 28.2165625 -13.375 28.4375 C-16.82142047 28.78372035 -16.82142047 28.78372035 -19 30 C-18.505 28.515 -18.505 28.515 -18 27 C-17.34 27 -16.68 27 -16 27 C-16 26.01 -16 25.02 -16 24 C-15.34 24 -14.68 24 -14 24 C-13.59201172 23.15888672 -13.59201172 23.15888672 -13.17578125 22.30078125 C-10.2831002 16.64035222 -6.94135239 11.19130995 -3.1875 6.0625 C-0.89201535 3.16618914 -0.89201535 3.16618914 0 0 Z " fill="#DCB50C" transform="translate(1166,1038)"/>
<path d="M0 0 C4 0 4 0 5.6875 1.3125 C7 3 7 3 8 6 C8.66 6 9.32 6 10 6 C10 7.32 10 8.64 10 10 C10.66 10 11.32 10 12 10 C14.125 11.75 14.125 11.75 16 14 C16 15.32 16 16.64 16 18 C16.66 18 17.32 18 18 18 C18 18.66 18 19.32 18 20 C18.66 20 19.32 20 20 20 C22.71391278 24.77357872 24.56561146 28.34388537 24 34 C24.66 34 25.32 34 26 34 C26 34.66 26 35.32 26 36 C26.66 36 27.32 36 28 36 C29.31626692 39.61973402 30 42.09567131 30 46 C30.66 46 31.32 46 32 46 C32 47.98 32 49.96 32 52 C31.34 52 30.68 52 30 52 C27.90649311 48.5980513 27.82057837 45.94727588 28 42 C27.34 42 26.68 42 26 42 C25.61908203 41.00419922 25.61908203 41.00419922 25.23046875 39.98828125 C23.43910603 35.39246304 21.55994558 31.22391021 19 27 C19 26.01 19 25.02 19 24 C18.34 24 17.68 24 17 24 C15.39789713 21.69297186 14.1253667 19.80234688 13.6875 17 C12.74631759 14.2620148 10.85796813 13.15662926 8.625 11.43359375 C6.83579577 9.85513713 5.59923333 8.21361636 4.25 6.25 C2.37712362 2.98821489 2.37712362 2.98821489 0 2 C0 1.34 0 0.68 0 0 Z " fill="#D9B219" transform="translate(1152,870)"/>
<path d="M0 0 C-0.3125 1.9375 -0.3125 1.9375 -1 4 C-1.99 4.33 -2.98 4.66 -4 5 C-4.69568078 6.31842728 -5.35871572 7.65427466 -6 9 C-7.65625 10.8515625 -7.65625 10.8515625 -9.5 12.625 C-10.1084375 13.21539063 -10.716875 13.80578125 -11.34375 14.4140625 C-11.8903125 14.93742188 -12.436875 15.46078125 -13 16 C-13.66 16.66 -14.32 17.32 -15 18 C-15.66 16.68 -16.32 15.36 -17 14 C-16.34 13.67 -15.68 13.34 -15 13 C-15.33 12.01 -15.66 11.02 -16 10 C-15.67 9.34 -15.34 8.68 -15 8 C-17.49552484 8.78130071 -17.49552484 8.78130071 -20 10 C-20.33 10.99 -20.66 11.98 -21 13 C-23 12 -23 12 -24 10 C-21.27167614 8.70652783 -18.54238631 7.41516704 -15.8125 6.125 C-15.04357422 5.76019531 -14.27464844 5.39539063 -13.48242188 5.01953125 C-2.85014205 0 -2.85014205 0 0 0 Z " fill="#F9F9F9" transform="translate(991,577)"/>
<path d="M0 0 C0.33 0 0.66 0 1 0 C1 3.3 1 6.6 1 10 C0.34 10 -0.32 10 -1 10 C-1.13277344 10.63808594 -1.26554687 11.27617188 -1.40234375 11.93359375 C-1.57894531 12.75988281 -1.75554687 13.58617187 -1.9375 14.4375 C-2.11152344 15.26121094 -2.28554687 16.08492187 -2.46484375 16.93359375 C-3 19 -3 19 -4 20 C-4.23218433 21.95698224 -4.46424003 23.91397992 -4.6953125 25.87109375 C-5.44570179 31.11419841 -6.84466246 34.62378825 -11 38 C-11.66 38 -12.32 38 -13 38 C-13 38.66 -13 39.32 -13 40 C-13.66 39.67 -14.32 39.34 -15 39 C-13.68 35.7 -12.36 32.4 -11 29 C-10.34 29 -9.68 29 -9 29 C-7.98459888 24.89776415 -7.98459888 24.89776415 -9 21 C-8.29296875 18.21484375 -8.29296875 18.21484375 -7.1875 14.9375 C-6.83042969 13.85339844 -6.47335937 12.76929688 -6.10546875 11.65234375 C-5 9 -5 9 -3 8 C-3 9.32 -3 10.64 -3 12 C-2.01 8.04 -1.02 4.08 0 0 Z " fill="#D9B935" transform="translate(1183,996)"/>
<path d="M0 0 C0.33 0.66 0.66 1.32 1 2 C1.99 2 2.98 2 4 2 C4.66 5.3 5.32 8.6 6 12 C6.66 12 7.32 12 8 12 C8 13.98 8 15.96 8 18 C8.66 18 9.32 18 10 18 C10 19.32 10 20.64 10 22 C10.66 22 11.32 22 12 22 C12 28.6 12 35.2 12 42 C11.67 42 11.34 42 11 42 C10.34 36.72 9.68 31.44 9 26 C8.34 26.33 7.68 26.66 7 27 C6.01802507 23.43826802 5.03991657 19.87548535 4.0625 16.3125 C3.78470703 15.30509766 3.50691406 14.29769531 3.22070312 13.25976562 C2.95322266 12.28330078 2.68574219 11.30683594 2.41015625 10.30078125 C2.16402588 9.40528564 1.91789551 8.50979004 1.66430664 7.5871582 C1.01802049 5.07018125 0.48475899 2.55252762 0 0 Z " fill="#DCB92F" transform="translate(1176,910)"/>
<path d="M0 0 C0.67546875 0.2165625 1.3509375 0.433125 2.046875 0.65625 C2.93890625 0.9346875 3.8309375 1.213125 4.75 1.5 C6.07257813 1.91765625 6.07257813 1.91765625 7.421875 2.34375 C10.20267529 3.16445285 10.20267529 3.16445285 14 3 C14.33 3.99 14.66 4.98 15 6 C17.90647014 7.30671466 17.90647014 7.30671466 21.4375 8.375 C27.58761716 10.4184566 33.30181274 12.91457602 39 16 C39 16.33 39 16.66 39 17 C33.81330712 16.44854367 29.38503343 15.19741358 24.5703125 13.1640625 C23.89451141 12.88404388 23.21871033 12.60402527 22.52243042 12.31552124 C21.10730192 11.72619674 19.69391199 11.13268137 18.28222656 10.53515625 C16.11570499 9.62107834 13.94131015 8.72794883 11.765625 7.8359375 C10.38750074 7.25905339 9.00987741 6.68097081 7.6328125 6.1015625 C6.98184601 5.83582428 6.33087952 5.57008606 5.66018677 5.29629517 C4.06898816 4.61291346 2.52821619 3.81454211 1 3 C0.67 2.01 0.34 1.02 0 0 Z " fill="#DBBB34" transform="translate(1058,817)"/>
<path d="M0 0 C2.6728804 0.51401546 4.60546379 1.30891009 7.0625 2.5625 C9.90404688 4.21977643 9.90404688 4.21977643 13 4 C15.04296875 5.09375 15.04296875 5.09375 17.1875 6.5 C17.90292969 6.9640625 18.61835937 7.428125 19.35546875 7.90625 C19.89816406 8.2671875 20.44085937 8.628125 21 9 C20.67 9.66 20.34 10.32 20 11 C21.2375 11.680625 21.2375 11.680625 22.5 12.375 C23.325 12.91125 24.15 13.4475 25 14 C25 14.66 25 15.32 25 16 C23.35 16 21.7 16 20 16 C19.34 14.68 18.68 13.36 18 12 C17.34 12 16.68 12 16 12 C16 11.34 16 10.68 16 10 C14.68 10 13.36 10 12 10 C11.34 9.01 10.68 8.02 10 7 C7.59514202 5.55577774 7.59514202 5.55577774 4.875 4.3125 C3.96492188 3.87550781 3.05484375 3.43851563 2.1171875 2.98828125 C1.41851563 2.66214844 0.71984375 2.33601562 0 2 C0 1.34 0 0.68 0 0 Z " fill="#DBB42F" transform="translate(1190,768)"/>
<path d="M0 0 C-0.33 0.66 -0.66 1.32 -1 2 C-1.99 2 -2.98 2 -4 2 C-4 3.65 -4 5.3 -4 7 C-5.32 7 -6.64 7 -8 7 C-8.04125 7.721875 -8.0825 8.44375 -8.125 9.1875 C-9.38352165 13.23274817 -11.63589117 14.49481257 -15 17 C-15.99 16.34 -16.98 15.68 -18 15 C-17.34 15 -16.68 15 -16 15 C-16 14.34 -16 13.68 -16 13 C-14.68 13 -13.36 13 -12 13 C-12 10.36 -12 7.72 -12 5 C-11.34 5 -10.68 5 -10 5 C-10 4.34 -10 3.68 -10 3 C-9.34 3 -8.68 3 -8 3 C-8 2.34 -8 1.68 -8 1 C-3.375 -1.125 -3.375 -1.125 0 0 Z " fill="#E0B40C" transform="translate(1084,649)"/>
<path d="M0 0 C0.99 0 1.98 0 3 0 C4.47265625 1.50390625 4.47265625 1.50390625 6.0625 3.5625 C10.46892082 8.84082963 15.93923283 13.17159175 22.23828125 16.0078125 C24 17 24 17 25 20 C22.69 19.34 20.38 18.68 18 18 C18 17.34 18 16.68 18 16 C16.68 16 15.36 16 14 16 C14 15.34 14 14.68 14 14 C13.13375 13.8453125 13.13375 13.8453125 12.25 13.6875 C9.61872985 12.88350079 8.01311907 11.86932485 6 10 C6 9.01 6 8.02 6 7 C5.34 7 4.68 7 4 7 C2.02 3.535 2.02 3.535 0 0 Z " fill="#DCBA30" transform="translate(1066,704)"/>
<path d="M0 0 C0.66 0.33 1.32 0.66 2 1 C1.1875 2.9375 1.1875 2.9375 0 5 C-0.99 5.33 -1.98 5.66 -3 6 C-4.66710346 7.49985609 -4.66710346 7.49985609 -6 9 C-4.35 9 -2.7 9 -1 9 C-1 9.66 -1 10.32 -1 11 C-3.64 11 -6.28 11 -9 11 C-9 11.99 -9 12.98 -9 14 C-11 15.6875 -11 15.6875 -13 17 C-14.32 16.34 -15.64 15.68 -17 15 C-15.625 13.5 -15.625 13.5 -14 12 C-13.34 12 -12.68 12 -12 12 C-12 11.34 -12 10.68 -12 10 C-10.23947136 8.41929472 -8.41580202 6.90833714 -6.5625 5.4375 C-5.55316406 4.63183594 -4.54382813 3.82617188 -3.50390625 2.99609375 C-2.67761719 2.33738281 -1.85132813 1.67867187 -1 1 C-0.67 0.67 -0.34 0.34 0 0 Z " fill="#F1F1F1" transform="translate(928,612)"/>
<path d="M0 0 C1.74965358 -0.05429959 3.49979787 -0.09292823 5.25 -0.125 C6.22453125 -0.14820313 7.1990625 -0.17140625 8.203125 -0.1953125 C11.0196498 0.00137219 12.60949036 0.55431084 15 2 C15 1.34 15 0.68 15 0 C17.475 0.495 17.475 0.495 20 1 C20 3.31 20 5.62 20 8 C18.68 8 17.36 8 16 8 C16 7.34 16 6.68 16 6 C15.34 6 14.68 6 14 6 C14 5.34 14 4.68 14 4 C12.68 4 11.36 4 10 4 C10 3.34 10 2.68 10 2 C6.7 1.67 3.4 1.34 0 1 C0 0.67 0 0.34 0 0 Z " fill="#DFB30C" transform="translate(1180,616)"/>
<path d="M0 0 C0.66 0 1.32 0 2 0 C1.67 2.97 1.34 5.94 1 9 C-0.65 9.33 -2.3 9.66 -4 10 C-4 10.66 -4 11.32 -4 12 C-4.66 12 -5.32 12 -6 12 C-6.144375 12.721875 -6.28875 13.44375 -6.4375 14.1875 C-6.95833333 16.79166667 -7.47916667 19.39583333 -8 22 C-9.32 22 -10.64 22 -12 22 C-12 22.66 -12 23.32 -12 24 C-12.66 24 -13.32 24 -14 24 C-10.95105897 17.71426849 -7.31294866 11.69901416 -3.1875 6.0625 C-0.89201535 3.16618914 -0.89201535 3.16618914 0 0 Z " fill="#D5B41C" transform="translate(1166,1038)"/>
<path d="M0 0 C0.33 0 0.66 0 1 0 C1.45351776 15.1508525 0.38462284 29.43542674 -4 44 C-4.33 44 -4.66 44 -5 44 C-4.67 38.39 -4.34 32.78 -4 27 C-3.34 27 -2.68 27 -2 27 C-1.34 18.09 -0.68 9.18 0 0 Z " fill="#DDBF2D" transform="translate(1268,889)"/>
<path d="M0 0 C0.66 0.33 1.32 0.66 2 1 C1.67 2.65 1.34 4.3 1 6 C-0.32 6 -1.64 6 -3 6 C-3.66 8.97 -4.32 11.94 -5 15 C-6.32 15.33 -7.64 15.66 -9 16 C-9 16.66 -9 17.32 -9 18 C-9.66 18 -10.32 18 -11 18 C-11 18.66 -11 19.32 -11 20 C-11.66 20 -12.32 20 -13 20 C-11.55049545 16.2089881 -9.84827434 12.6125362 -8 9 C-7.34 9 -6.68 9 -6 9 C-5.71125 8.401875 -5.4225 7.80375 -5.125 7.1875 C-4 5 -4 5 -2 2 C-1.34 2 -0.68 2 0 2 C0 1.34 0 0.68 0 0 Z " fill="#DAB319" transform="translate(987,648)"/>
<path d="M0 0 C0.99 0.33 1.98 0.66 3 1 C4.66362417 1.34820041 6.32995171 1.68404492 8 2 C8 2.66 8 3.32 8 4 C8.66 4 9.32 4 10 4 C10 4.66 10 5.32 10 6 C15.94 6.99 15.94 6.99 22 8 C22 8.66 22 9.32 22 10 C22.66 10 23.32 10 24 10 C24 10.66 24 11.32 24 12 C15.58624687 10.01675819 7.60476477 7.09487334 0 3 C0 2.01 0 1.02 0 0 Z " fill="#D6B31B" transform="translate(1072,820)"/>
<path d="M0 0 C0.33 0 0.66 0 1 0 C1 2.64 1 5.28 1 8 C0.34 8 -0.32 8 -1 8 C-1 8.66 -1 9.32 -1 10 C-1.66 10 -2.32 10 -3 10 C-3 10.66 -3 11.32 -3 12 C-3.66 12 -4.32 12 -5 12 C-5.55277252 14.6848951 -6.04967496 17.34772471 -6.4375 20.0625 C-6.95238889 22.75136418 -7.64276564 24.64746044 -9 27 C-9.66 27 -10.32 27 -11 27 C-10.38169051 21.97525707 -8.87023224 17.75279506 -6.9375 13.125 C-6.51500977 12.09246094 -6.51500977 12.09246094 -6.08398438 11.0390625 C-5.39484734 9.35710091 -4.69819202 7.67822303 -4 6 C-3.34 6 -2.68 6 -2 6 C-1.34 4.02 -0.68 2.04 0 0 Z " fill="#D7B121" transform="translate(973,668)"/>
<path d="M0 0 C2.14255793 -0.38932856 2.14255793 -0.38932856 4 -1 C4 -0.34 4 0.32 4 1 C3.01 1.33 2.02 1.66 1 2 C0.67 2.99 0.34 3.98 0 5 C-3.96 5.66 -7.92 6.32 -12 7 C-12 5.68 -12 4.36 -12 3 C-10.5682384 2.30062798 -9.12932968 1.61587282 -7.6875 0.9375 C-6.48673828 0.36322266 -6.48673828 0.36322266 -5.26171875 -0.22265625 C-3 -1 -3 -1 0 0 Z " fill="#DDB420" transform="translate(1108,559)"/>
<path d="M0 0 C-0.3125 1.9375 -0.3125 1.9375 -1 4 C-1.99 4.33 -2.98 4.66 -4 5 C-4.309375 5.61875 -4.61875 6.2375 -4.9375 6.875 C-6.20298687 9.40597375 -7.67272837 10.44848558 -10 12 C-10 10.02 -10 8.04 -10 6 C-10.99 5.67 -11.98 5.34 -13 5 C-11.21046815 4.16209211 -9.41830305 3.32980604 -7.625 2.5 C-6.62726562 2.0359375 -5.62953125 1.571875 -4.6015625 1.09375 C-2 0 -2 0 0 0 Z " fill="#EDECE5" transform="translate(991,577)"/>
<path d="M0 0 C0.66 0 1.32 0 2 0 C2.26851585 5.63883278 1.71342115 9.96531239 -2 14.375 C-4 16 -4 16 -6 16 C-6 16.66 -6 17.32 -6 18 C-6.66 17.67 -7.32 17.34 -8 17 C-6.68 13.7 -5.36 10.4 -4 7 C-3.34 7 -2.68 7 -2 7 C-1.34 4.69 -0.68 2.38 0 0 Z " fill="#D9B411" transform="translate(1176,1018)"/>
<path d="M0 0 C1.98 0 3.96 0 6 0 C6 0.66 6 1.32 6 2 C9.3 2.66 12.6 3.32 16 4 C16 5.65 16 7.3 16 9 C16.66 9.33 17.32 9.66 18 10 C14.58870743 9.21277864 11.31273991 8.12774125 8 7 C7.01 6.67 6.02 6.34 5 6 C4.67 5.01 4.34 4.02 4 3 C2.00334686 1.31461399 2.00334686 1.31461399 0 0 Z " fill="#D7B21E" transform="translate(1112,840)"/>
<path d="M0 0 C1.32 0.66 2.64 1.32 4 2 C2.43358249 6.30764815 0.31663844 10.06171464 -2 14 C-2.99 14 -3.98 14 -5 14 C-4.39099614 9.85877373 -2.92828728 6.69588396 -1 3 C-0.67 2.01 -0.34 1.02 0 0 Z M-8 14 C-7.01 14.33 -6.02 14.66 -5 15 C-5.99 15.33 -6.98 15.66 -8 16 C-8 15.34 -8 14.68 -8 14 Z " fill="#F4F4F1" transform="translate(955,615)"/>
<path d="M0 0 C0.99 0 1.98 0 3 0 C5 2 5 2 5 6 C6.32 6 7.64 6 9 6 C9 7.32 9 8.64 9 10 C10.32 10.66 11.64 11.32 13 12 C13 12.66 13 13.32 13 14 C13.66 14 14.32 14 15 14 C15 14.66 15 15.32 15 16 C12.76224708 14.99686938 11.1492612 14.15523165 9.4375 12.375 C7.97021721 10.65438868 7.97021721 10.65438868 5 11 C4.731875 10.2575 4.46375 9.515 4.1875 8.75 C3.05593565 6.12953519 1.71182842 4.2565011 0 2 C0 1.34 0 0.68 0 0 Z " fill="#D7B41C" transform="translate(971,758)"/>
<path d="M0 0 C0.66 0 1.32 0 2 0 C1 2 0 4 -1 6 C-1.66 6 -2.32 6 -3 6 C-3 6.66 -3 7.32 -3 8 C-2.34 8 -1.68 8 -1 8 C-2 10 -2 10 -3.8125 10.875 C-6.38820998 12.19965085 -8.03454804 13.89415861 -10 16 C-10.66 15.67 -11.32 15.34 -12 15 C-12 14.34 -12 13.68 -12 13 C-11.319375 12.484375 -10.63875 11.96875 -9.9375 11.4375 C-6.50921905 8.59275623 -4.16034851 5.41555671 -1.55078125 1.828125 C-1.03902344 1.22484375 -0.52726562 0.6215625 0 0 Z " fill="#F2F2F2" transform="translate(1040,1014)"/>
<path d="M0 0 C-1.24205807 3.72617422 -3.1110675 5.39291457 -6 8 C-6.66 8 -7.32 8 -8 8 C-8.226875 8.556875 -8.45375 9.11375 -8.6875 9.6875 C-10.37550036 12.66159588 -12.46676517 14.72008865 -15 17 C-15.66 17 -16.32 17 -17 17 C-16.45912682 13.21388773 -14.88277668 11.44599233 -12 9 C-11.34 9 -10.68 9 -10 9 C-9.731875 8.360625 -9.46375 7.72125 -9.1875 7.0625 C-8 5 -8 5 -5 4 C-5 3.34 -5 2.68 -5 2 C-2 0 -2 0 0 0 Z " fill="#E3C22F" transform="translate(1013,619)"/>
<path d="M0 0 C5.37843643 6.07997162 4.26583424 14.34192891 4 22 C3.76939956 24.37359423 3.42692507 26.65191209 3 29 C2.67 29 2.34 29 2 29 C2 22.07 2 15.14 2 8 C1.34 8 0.68 8 0 8 C0 5.36 0 2.72 0 0 Z " fill="#D5B019" transform="translate(1232,556)"/>
<path d="M0 0 C0.33 0 0.66 0 1 0 C1 1.98 1 3.96 1 6 C-0.32 6.33 -1.64 6.66 -3 7 C-3 7.66 -3 8.32 -3 9 C-4.32 9 -5.64 9 -7 9 C-7.66 10.98 -8.32 12.96 -9 15 C-10.32 14.67 -11.64 14.34 -13 14 C-12.67 12.68 -12.34 11.36 -12 10 C-11.01 10.33 -10.02 10.66 -9 11 C-8.773125 10.443125 -8.54625 9.88625 -8.3125 9.3125 C-6.62449964 6.33840412 -4.53323483 4.27991135 -2 2 C-1.34 2 -0.68 2 0 2 C0 1.34 0 0.68 0 0 Z " fill="#D7B517" transform="translate(1007,625)"/>
<path d="M0 0 C2.8125 -0.25 2.8125 -0.25 6 0 C8.04040776 2.04040776 9 3.08325244 9 6 C9.66 6 10.32 6 11 6 C11 6.66 11 7.32 11 8 C11.99 8.33 12.98 8.66 14 9 C14.33 10.65 14.66 12.3 15 14 C14.67 13.34 14.34 12.68 14 12 C13.01 11.67 12.02 11.34 11 11 C11 10.34 11 9.68 11 9 C10.4225 8.938125 9.845 8.87625 9.25 8.8125 C6.09356014 7.6726745 4.96632536 5.66405371 3 3 C2.01769502 1.9826127 1.02530403 0.97403883 0 0 Z " fill="#D8B41A" transform="translate(1137,856)"/>
<path d="M0 0 C3.03952713 4.5592907 5 8.47162419 5 14 C5.66 14 6.32 14 7 14 C7 15.32 7 16.64 7 18 C6.34 18 5.68 18 5 18 C-1.60409314 7.41430867 -1.60409314 7.41430867 -0.875 2.8125 C-0.58625 1.884375 -0.2975 0.95625 0 0 Z " fill="#D9B41A" transform="translate(963,738)"/>
<path d="M0 0 C0 0.66 0 1.32 0 2 C-1.98 2 -3.96 2 -6 2 C-6 2.66 -6 3.32 -6 4 C-7.32 4 -8.64 4 -10 4 C-10 4.66 -10 5.32 -10 6 C-13.96 6.66 -17.92 7.32 -22 8 C-18.57583049 4.57583049 -16.58742902 4.24404855 -12 3 C-10.989375 2.46375 -9.97875 1.9275 -8.9375 1.375 C-5.69492687 -0.14280019 -3.53525953 -0.25251854 0 0 Z " fill="#D8B314" transform="translate(1136,550)"/>
<path d="M0 0 C0.66 0 1.32 0 2 0 C1.47152362 6.51787536 -1.3239005 14.3239005 -6 19 C-6 16.69 -6 14.38 -6 12 C-5.34 12 -4.68 12 -4 12 C-3.855625 11.4225 -3.71125 10.845 -3.5625 10.25 C-3.04166667 8.16666667 -2.52083333 6.08333333 -2 4 C-1.34 4 -0.68 4 0 4 C0 2.68 0 1.36 0 0 Z " fill="#D7B317" transform="translate(1256,944)"/>
<path d="M0 0 C4.75349085 1.38192554 6.55069283 3.59931497 9.3125 7.625 C10.00988281 8.62789062 10.70726562 9.63078125 11.42578125 10.6640625 C11.94527344 11.43492187 12.46476562 12.20578125 13 13 C12.01 13.33 11.02 13.66 10 14 C10 13.01 10 12.02 10 11 C9.34 11 8.68 11 8 11 C7.34 9.35 6.68 7.7 6 6 C3.69 6 1.38 6 -1 6 C-1 3 -1 3 0 0 Z " fill="#D8B318" transform="translate(1234,802)"/>
<path d="M0 0 C0.66 0 1.32 0 2 0 C2 1.98 2 3.96 2 6 C2.66 6 3.32 6 4 6 C4.33 8.31 4.66 10.62 5 13 C3.35 13.33 1.7 13.66 0 14 C0 9.38 0 4.76 0 0 Z " fill="#D9B311" transform="translate(1258,842)"/>
<path d="M0 0 C0.66 0 1.32 0 2 0 C2 0.66 2 1.32 2 2 C3.32 2 4.64 2 6 2 C6 2.66 6 3.32 6 4 C8.64 4.66 11.28 5.32 14 6 C14.33 7.65 14.66 9.3 15 11 C12 11 12 11 10 10 C10 9.01 10 8.02 10 7 C9.278125 6.9175 8.55625 6.835 7.8125 6.75 C4.41073132 5.84286169 2.54533916 4.39989121 0 2 C0 1.34 0 0.68 0 0 Z " fill="#D6B316" transform="translate(986,774)"/>
<path d="M0 0 C1.32 0 2.64 0 4 0 C4 0.66 4 1.32 4 2 C5.175625 2.185625 5.175625 2.185625 6.375 2.375 C9 3 9 3 11 5 C8.03 5.66 5.06 6.32 2 7 C2 6.34 2 5.68 2 5 C1.34 5 0.68 5 0 5 C0 3.35 0 1.7 0 0 Z " fill="#DCB40D" transform="translate(1080,720)"/>
<path d="M0 0 C0.33 0.66 0.66 1.32 1 2 C0.0625 4.625 0.0625 4.625 -1 7 C-1.66 7 -2.32 7 -3 7 C-3.103125 7.845625 -3.20625 8.69125 -3.3125 9.5625 C-4.0828854 13.41442701 -5.36274514 16.44075031 -7 20 C-8.203125 18.48046875 -8.203125 18.48046875 -9 16 C-8.04423697 13.25365623 -7.04776966 10.88600171 -5.75 8.3125 C-5.42386719 7.62349609 -5.09773438 6.93449219 -4.76171875 6.22460938 C-2.29572849 1.14786425 -2.29572849 1.14786425 0 0 Z " fill="#DEBE40" transform="translate(1175,1018)"/>
<path d="M0 0 C1.98 0.66 3.96 1.32 6 2 C6 3.32 6 4.64 6 6 C7.32 6 8.64 6 10 6 C9.67 6.99 9.34 7.98 9 9 C7.35 8.67 5.7 8.34 4 8 C4 7.34 4 6.68 4 6 C2.02 5.34 0.04 4.68 -2 4 C-1.34 2.68 -0.68 1.36 0 0 Z " fill="#DFB310" transform="translate(1132,848)"/>
<path d="M0 0 C3 0 3 0 4.6875 1.375 C6 3 6 3 6 5 C6.66 5 7.32 5 8 5 C8 5.66 8 6.32 8 7 C8.66 7 9.32 7 10 7 C10.33 7.99 10.66 8.98 11 10 C11.66 10.33 12.32 10.66 13 11 C13 11.66 13 12.32 13 13 C10 13 10 13 7.875 11.1875 C6 9 6 9 5 6 C4.01 5.67 3.02 5.34 2 5 C2 4.34 2 3.68 2 3 C1.34 3 0.68 3 0 3 C0 2.01 0 1.02 0 0 Z " fill="#D9B613" transform="translate(1216,785)"/>
<path d="M0 0 C0.99 0.33 1.98 0.66 3 1 C2.67 1.66 2.34 2.32 2 3 C1.01 3 0.02 3 -1 3 C-1 5.31 -1 7.62 -1 10 C-1.33 9.34 -1.66 8.68 -2 8 C-2.45375 8.45375 -2.9075 8.9075 -3.375 9.375 C-4.58333333 10.58333333 -5.79166667 11.79166667 -7 13 C-7.66 12.34 -8.32 11.68 -9 11 C-7.7260411 8.96166576 -6.38938077 6.96147874 -5 5 C-4.34 5 -3.68 5 -3 5 C-2.690625 4.360625 -2.38125 3.72125 -2.0625 3.0625 C-1 1 -1 1 0 0 Z " fill="#DFBF30" transform="translate(993,637)"/>
<path d="M0 0 C0.66 0.66 1.32 1.32 2 2 C2.99 2 3.98 2 5 2 C4.67 3.32 4.34 4.64 4 6 C0.04 6 -3.92 6 -8 6 C-5.42769488 3.42769488 -3.23760332 1.61880166 0 0 Z " fill="#D7B327" transform="translate(1147,542)"/>
<path d="M0 0 C0 0.66 0 1.32 0 2 C-0.66 2 -1.32 2 -2 2 C-2.226875 2.804375 -2.45375 3.60875 -2.6875 4.4375 C-3.3371875 5.7059375 -3.3371875 5.7059375 -4 7 C-6.5625 7.6875 -6.5625 7.6875 -9 8 C-9.33 8.66 -9.66 9.32 -10 10 C-11.32 10 -12.64 10 -14 10 C-14 9.34 -14 8.68 -14 8 C-13.34 8 -12.68 8 -12 8 C-12 7.34 -12 6.68 -12 6 C-9.69 6 -7.38 6 -5 6 C-5.99 5.34 -6.98 4.68 -8 4 C-2.25 0 -2.25 0 0 0 Z " fill="#DBB213" transform="translate(1076,576)"/>
<path d="M0 0 C0.66 0 1.32 0 2 0 C2 1.32 2 2.64 2 4 C2.66 2.68 3.32 1.36 4 0 C6.4375 0.75 6.4375 0.75 9 2 C9.8125 4.125 9.8125 4.125 10 6 C9.2575 5.79375 8.515 5.5875 7.75 5.375 C4.67669159 4.95591249 3.57213134 5.38050989 1 7 C0.34 6.34 -0.32 5.68 -1 5 C-0.625 2.375 -0.625 2.375 0 0 Z " fill="#F4F4F3" transform="translate(994,825)"/>
<path d="M0 0 C1.875 0.1875 1.875 0.1875 4 1 C5.25 3.5625 5.25 3.5625 6 6 C6.66 6 7.32 6 8 6 C8 6.99 8 7.98 8 9 C6.68 9 5.36 9 4 9 C4 8.34 4 7.68 4 7 C2.68 6.34 1.36 5.68 0 5 C0 3.35 0 1.7 0 0 Z " fill="#DDB512" transform="translate(1064,705)"/>
<path d="M0 0 C0.66 0 1.32 0 2 0 C2 1.32 2 2.64 2 4 C2.66 4 3.32 4 4 4 C4 10.6 4 17.2 4 24 C3.67 24 3.34 24 3 24 C2 16 1 8 0 0 Z " fill="#D6B21B" transform="translate(1184,928)"/>
<path d="M0 0 C6.625 -0.25 6.625 -0.25 10 2 C13.1628485 1.19595537 13.1628485 1.19595537 16 0 C16 1.65 16 3.3 16 5 C4.10324186 4.39578636 4.10324186 4.39578636 0 1 C0 0.67 0 0.34 0 0 Z " fill="#E2B60D" transform="translate(1040,808)"/>
<path d="M0 0 C4.28253314 -0.3466079 6.61664308 0.57700644 10.25 2.8125 C11.12140625 3.33457031 11.9928125 3.85664062 12.890625 4.39453125 C15 6 15 6 16 9 C13.0280615 7.87548273 10.66559313 6.77706209 8 5 C7.175 4.87625 6.35 4.7525 5.5 4.625 C2.38483 3.8462075 1.64192217 2.67892565 0 0 Z " fill="#DCB939" transform="translate(1185,764)"/>
<path d="M0 0 C0.33 0.66 0.66 1.32 1 2 C1.66 2 2.32 2 3 2 C3 2.99 3 3.98 3 5 C3.66 5 4.32 5 5 5 C4.67 7.97 4.34 10.94 4 14 C0.7354972 10.7354972 0.06763945 6.58952701 -0.125 2.0625 C-0.08375 1.381875 -0.0425 0.70125 0 0 Z " fill="#D9B932" transform="translate(957,731)"/>
<path d="M0 0 C0 0.66 0 1.32 0 2 C-2.64738916 3.4606285 -3.89448334 4 -7 4 C-7.33 5.32 -7.66 6.64 -8 8 C-9.32 8 -10.64 8 -12 8 C-12 6.68 -12 5.36 -12 4 C-11.34 4 -10.68 4 -10 4 C-10 3.34 -10 2.68 -10 2 C-8.7090864 1.66376204 -7.41723903 1.33110751 -6.125 1 C-5.40570312 0.814375 -4.68640625 0.62875 -3.9453125 0.4375 C-2 0 -2 0 0 0 Z " fill="#DBB30F" transform="translate(1108,632)"/>
<path d="M0 0 C0.99 0.33 1.98 0.66 3 1 C-0.75 4 -0.75 4 -3 4 C-3 4.66 -3 5.32 -3 6 C-4.65532623 7.01866229 -6.32260138 8.01810813 -8 9 C-8.33 9.66 -8.66 10.32 -9 11 C-9.99 11 -10.98 11 -12 11 C-10.50589642 7.19299032 -8.3813123 5.50238376 -5.0625 3.1875 C-4.18722656 2.56230469 -3.31195312 1.93710937 -2.41015625 1.29296875 C-1.61480469 0.86628906 -0.81945313 0.43960938 0 0 Z " fill="#E5BF33" transform="translate(1038,597)"/>
<path d="M0 0 C1.34391145 3.72507 0.65810293 6.41088861 -0.3125 10.1875 C-0.70888672 11.78658203 -0.70888672 11.78658203 -1.11328125 13.41796875 C-2 16 -2 16 -4 17 C-4.22577402 11.5814234 -3.46670113 7.22512279 -2 2 C-1.34 2 -0.68 2 0 2 C0 1.34 0 0.68 0 0 Z " fill="#E3C040" transform="translate(1183,992)"/>
<path d="M0 0 C0.33 0 0.66 0 1 0 C0.41632611 6.30367803 -1.04071619 11.98660063 -3 18 C-4 15 -4 15 -3 12 C-3.99 12 -4.98 12 -6 12 C-5.34 10.02 -4.68 8.04 -4 6 C-3.34 6.33 -2.68 6.66 -2 7 C-1.34 4.69 -0.68 2.38 0 0 Z " fill="#D3B21E" transform="translate(1266,922)"/>
<path d="M0 0 C0.66 0 1.32 0 2 0 C2 1.98 2 3.96 2 6 C2.66 6.33 3.32 6.66 4 7 C3.34 11.95 2.68 16.9 2 22 C1.67 22 1.34 22 1 22 C0.97305149 20.04174127 0.95362782 18.08337774 0.9375 16.125 C0.92589844 15.03445313 0.91429687 13.94390625 0.90234375 12.8203125 C1 10 1 10 2 8 C1.34 8 0.68 8 0 8 C0 5.36 0 2.72 0 0 Z " fill="#D7B21D" transform="translate(1062,672)"/>
<path d="M0 0 C1.65 0 3.3 0 5 0 C5 0.99 5 1.98 5 3 C4.01 3.66 3.02 4.32 2 5 C2.33 5.66 2.66 6.32 3 7 C0 8 0 8 -4 8 C-4 7.34 -4 6.68 -4 6 C-3.34 6 -2.68 6 -2 6 C-1.34 4.02 -0.68 2.04 0 0 Z " fill="#D8B416" transform="translate(1090,640)"/>
<path d="M0 0 C-4.40998494 4.04248619 -9.68762895 4.91741532 -15.5 5.125 C-16.325 5.08375 -17.15 5.0425 -18 5 C-13.61274907 0.61274907 -6.00012433 -0.47369403 0 0 Z " fill="#DCBC30" transform="translate(1154,618)"/>
<path d="M0 0 C1 3 1 3 1.4375 5.125 C1.7159375 6.053125 1.7159375 6.053125 2 7 C2.66 7.33 3.32 7.66 4 8 C2.02 8.66 0.04 9.32 -2 10 C-2 9.01 -2 8.02 -2 7 C-2.99 7.66 -3.98 8.32 -5 9 C-3.7508258 5.54074837 -2.32472205 2.85306797 0 0 Z " fill="#F4F4F4" transform="translate(884,1042)"/>
<path d="M0 0 C1.44096586 0.42594588 2.87768712 0.86626633 4.3125 1.3125 C5.11300781 1.55613281 5.91351562 1.79976562 6.73828125 2.05078125 C9.09964573 3.04182023 10.33879993 4.08074943 12 6 C11.37351562 5.9278125 10.74703125 5.855625 10.1015625 5.78125 C9.28429688 5.6884375 8.46703125 5.595625 7.625 5.5 C6.81289062 5.4071875 6.00078125 5.314375 5.1640625 5.21875 C3.03087175 4.96647649 3.03087175 4.96647649 1 5 C1 4.34 1 3.68 1 3 C0.01 2.67 -0.98 2.34 -2 2 C-1.34 1.34 -0.68 0.68 0 0 Z " fill="#F5F5F3" transform="translate(1046,850)"/>
<path d="M0 0 C-2.12114959 1.50571746 -4.24653615 3.00468679 -6.375 4.5 C-6.97828125 4.92925781 -7.5815625 5.35851562 -8.203125 5.80078125 C-12.7734375 9 -12.7734375 9 -15 9 C-13.70077005 5.10231014 -12.05324838 4.42752259 -8.625 2.25 C-7.64789062 1.61578125 -6.67078125 0.9815625 -5.6640625 0.328125 C-3 -1 -3 -1 0 0 Z " fill="#E1C039" transform="translate(1057,587)"/>
<path d="M0 0 C0.99 0 1.98 0 3 0 C3.3227506 4.62609198 2.84450614 7.28026121 0 11 C-0.66 11 -1.32 11 -2 11 C-2 9.02 -2 7.04 -2 5 C-1.67 5 -1.34 5 -1 5 C-0.67 3.35 -0.34 1.7 0 0 Z " fill="#D7BA2D" transform="translate(1066,667)"/>
<path d="M0 0 C0 0.66 0 1.32 0 2 C-8.25 1.67 -16.5 1.34 -25 1 C-25 0.67 -25 0.34 -25 0 C-21.58382503 -0.1972935 -18.16705407 -0.38112295 -14.75 -0.5625 C-13.29787109 -0.64661133 -13.29787109 -0.64661133 -11.81640625 -0.73242188 C-10.88183594 -0.78076172 -9.94726562 -0.82910156 -8.984375 -0.87890625 C-8.12553711 -0.9260376 -7.26669922 -0.97316895 -6.38183594 -1.02172852 C-4.07335735 -1.00066921 -2.20243733 -0.66206871 0 0 Z " fill="#E3BF31" transform="translate(1206,537)"/>
<path d="M0 0 C2.87436167 2.87436167 2.96762555 5.00027708 3.09765625 9.015625 C3.08605469 10.08296875 3.07445312 11.1503125 3.0625 12.25 C3.05347656 13.32765625 3.04445313 14.4053125 3.03515625 15.515625 C3.02355469 16.33546875 3.01195312 17.1553125 3 18 C2.67 18 2.34 18 2 18 C1.67 15.69 1.34 13.38 1 11 C0.67 11 0.34 11 0 11 C-1.125 3.375 -1.125 3.375 0 0 Z " fill="#E3C038" transform="translate(1184,934)"/>
<path d="M0 0 C0.99 0.33 1.98 0.66 3 1 C1.34784004 4.57967992 -0.73124352 7.77982952 -3 11 C-3.33 11 -3.66 11 -4 11 C-4.20140476 7.37471432 -3.85776765 5.13498292 -2 2 C-1.34 2 -0.68 2 0 2 C0 1.34 0 0.68 0 0 Z " fill="#F1F0EE" transform="translate(966,602)"/>
<path d="M0 0 C4.92289989 0.43437352 7.48750825 2.643619 11 6 C12.375 8.3125 12.375 8.3125 13 10 C12.01 9.67 11.02 9.34 10 9 C10 8.34 10 7.68 10 7 C8.68 6.67 7.36 6.34 6 6 C6 5.34 6 4.68 6 4 C5.195625 3.71125 4.39125 3.4225 3.5625 3.125 C1 2 1 2 0 0 Z " fill="#DCBC35" transform="translate(1209,778)"/>
<path d="M0 0 C0.67578125 1.765625 0.67578125 1.765625 1 4 C-0.14453125 5.921875 -0.14453125 5.921875 -1.8125 7.75 C-2.62654297 8.67039062 -2.62654297 8.67039062 -3.45703125 9.609375 C-5 11 -5 11 -7 11 C-6.690625 10.401875 -6.38125 9.80375 -6.0625 9.1875 C-4.89790296 6.91043228 -4.89790296 6.91043228 -4 4 C-2.70644173 2.62804426 -1.37701298 1.28817344 0 0 Z " fill="#DEBB2E" transform="translate(1226,1002)"/>
<path d="M0 0 C0.66 0 1.32 0 2 0 C3.2890625 1.6796875 3.2890625 1.6796875 4.625 3.875 C5.29402344 4.95394531 5.29402344 4.95394531 5.9765625 6.0546875 C7 8 7 8 7 10 C5.125 9.8125 5.125 9.8125 3 9 C1.875 6.5625 1.875 6.5625 1 4 C0.34 3.34 -0.32 2.68 -1 2 C-0.67 1.34 -0.34 0.68 0 0 Z " fill="#EFEFE9" transform="translate(1147,918)"/>
<path d="M0 0 C2.86697492 1.28519565 4.97607712 2.57129254 7 5 C7 5.66 7 6.32 7 7 C3.66666667 5.66666667 0.33333333 4.33333333 -3 3 C-2.01 2.01 -1.02 1.02 0 0 Z " fill="#DAB414" transform="translate(1017,793)"/>
<path d="M0 0 C3.48330216 0.64505596 6.09432866 1.98217268 9 4 C9 4.66 9 5.32 9 6 C7.35 6 5.7 6 4 6 C3.34 4.68 2.68 3.36 2 2 C1.34 2 0.68 2 0 2 C0 1.34 0 0.68 0 0 Z " fill="#D6B218" transform="translate(1206,778)"/>
<path d="M0 0 C1.32 0.99 2.64 1.98 4 3 C0.93882432 5.62386487 0.26826873 6 -4 6 C-2.84826645 3.53199953 -1.95216435 1.95216435 0 0 Z " fill="#CBBC71" transform="translate(1141,1070)"/>
<path d="M0 0 C0.45375 0.474375 0.9075 0.94875 1.375 1.4375 C2.93258204 3.09027808 2.93258204 3.09027808 5 4 C5 3.34 5 2.68 5 2 C6.65 1.67 8.3 1.34 10 1 C10 1.66 10 2.32 10 3 C7.3125 4.625 7.3125 4.625 4 6 C1.125 5.1875 1.125 5.1875 -1 4 C-0.67 2.68 -0.34 1.36 0 0 Z " fill="#D3B847" transform="translate(1143,1067)"/>
<path d="M0 0 C0.66 0 1.32 0 2 0 C2 2.31 2 4.62 2 7 C0.02 7.99 0.02 7.99 -2 9 C-2 9.66 -2 10.32 -2 11 C-2.66 10.67 -3.32 10.34 -4 10 C-2.68 6.7 -1.36 3.4 0 0 Z " fill="#D9B327" transform="translate(1172,1025)"/>
<path d="M0 0 C3.36591866 1.44253657 5.51047079 3.33264727 8 6 C5 7 5 7 2 6 C1.01 6.495 1.01 6.495 0 7 C0 4.69 0 2.38 0 0 Z " fill="#F3F3F0" transform="translate(987,817)"/>
<path d="M0 0 C0.86625 0.556875 0.86625 0.556875 1.75 1.125 C1.09 2.445 0.43 3.765 -0.25 5.125 C-0.91 5.125 -1.57 5.125 -2.25 5.125 C-2.25 4.465 -2.25 3.805 -2.25 3.125 C-3.57 3.125 -4.89 3.125 -6.25 3.125 C-6.25 2.465 -6.25 1.805 -6.25 1.125 C-2.80384615 -1.09038462 -2.80384615 -1.09038462 0 0 Z " fill="#DEB60F" transform="translate(1008.25,784.875)"/>
<path d="M0 0 C6.625 -0.25 6.625 -0.25 10 2 C7 4 7 4 4.4375 3.6875 C2 3 2 3 0 2 C0 1.34 0 0.68 0 0 Z " fill="#E0B70C" transform="translate(1136,548)"/>
<path d="M0 0 C0.66 0.33 1.32 0.66 2 1 C2.625 3.0625 2.625 3.0625 3 5 C2.01 5 1.02 5 0 5 C-0.99 6.485 -0.99 6.485 -2 8 C-2.66 8 -3.32 8 -4 8 C-4 7.34 -4 6.68 -4 6 C-3.34 6 -2.68 6 -2 6 C-2 4.35 -2 2.7 -2 1 C-1.34 0.67 -0.68 0.34 0 0 Z " fill="#D6B51B" transform="translate(1226,998)"/>
<path d="M0 0 C5.02475668 -0.29557392 7.92352591 -0.0282379 12 3 C12.66 3.66 13.32 4.32 14 5 C9.15340923 4.40895235 5.39251833 3.02055843 1 1 C0.67 1.66 0.34 2.32 0 3 C0 2.01 0 1.02 0 0 Z " fill="#D2AF1E" transform="translate(1057,816)"/>
<path d="M0 0 C0.33 0.99 0.66 1.98 1 3 C0.34 3 -0.32 3 -1 3 C-1.66 4.98 -2.32 6.96 -3 9 C-4.32 9 -5.64 9 -7 9 C-7 8.34 -7 7.68 -7 7 C-6.34 6.67 -5.68 6.34 -5 6 C-4.34786708 3.97536745 -4.34786708 3.97536745 -4 2 C-2.68 2 -1.36 2 0 2 C0 1.34 0 0.68 0 0 Z " fill="#D7B626" transform="translate(1017,615)"/>
<path d="M0 0 C0.99 0.33 1.98 0.66 3 1 C1.68 2.65 0.36 4.3 -1 6 C-2.65 5.67 -4.3 5.34 -6 5 C-2.25 1.125 -2.25 1.125 0 0 Z " fill="#EEEEEE" transform="translate(951,596)"/>
<path d="M0 0 C0.33 0 0.66 0 1 0 C1 3.3 1 6.6 1 10 C0.34 10 -0.32 10 -1 10 C-1.33 11.32 -1.66 12.64 -2 14 C-3.49341969 11.01316063 -2.40648676 9.04839022 -1.5625 5.875 C-1.27503906 4.77929688 -0.98757813 3.68359375 -0.69140625 2.5546875 C-0.46324219 1.71164062 -0.23507812 0.86859375 0 0 Z " fill="#D6B11C" transform="translate(1183,996)"/>
<path d="M0 0 C-0.33 0.66 -0.66 1.32 -1 2 C-1.99 2 -2.98 2 -4 2 C-4 3.65 -4 5.3 -4 7 C-4.66 7 -5.32 7 -6 7 C-6.33 5.02 -6.66 3.04 -7 1 C-3.375 -1.125 -3.375 -1.125 0 0 Z " fill="#DBB416" transform="translate(1248,969)"/>
<path d="M0 0 C0.33 0 0.66 0 1 0 C1.08333357 4.8333472 0.95261487 9.23692563 0 14 C-0.33 14 -0.66 14 -1 14 C-1.22142255 12.04310341 -1.4267568 10.08438048 -1.625 8.125 C-1.74101563 7.03445313 -1.85703125 5.94390625 -1.9765625 4.8203125 C-1.98429688 3.88960937 -1.99203125 2.95890625 -2 2 C-1.34 1.34 -0.68 0.68 0 0 Z " fill="#E9C640" transform="translate(958,704)"/>
<path d="M0 0 C0.33 0 0.66 0 1 0 C1 2.64 1 5.28 1 8 C0.34 8 -0.32 8 -1 8 C-1 8.66 -1 9.32 -1 10 C-1.66 10 -2.32 10 -3 10 C-2.49287967 6.28111761 -1.88391785 3.26545761 0 0 Z " fill="#DBAF16" transform="translate(973,668)"/>
<path d="M0 0 C0 3 0 3 -1.3125 4.38671875 C-2.875 5.59114583 -4.4375 6.79557292 -6 8 C-6.99 7.34 -7.98 6.68 -9 6 C-8.34 6 -7.68 6 -7 6 C-7 5.34 -7 4.68 -7 4 C-5.68 4 -4.36 4 -3 4 C-3 3.34 -3 2.68 -3 2 C-2.01 1.34 -1.02 0.68 0 0 Z " fill="#D5B21B" transform="translate(1075,658)"/>
<path d="M0 0 C0.33 0.99 0.66 1.98 1 3 C-3.39453125 7.00390625 -3.39453125 7.00390625 -5 8 C-5.99 7.67 -6.98 7.34 -8 7 C-6.68 6.01 -5.36 5.02 -4 4 C-4.33 3.34 -4.66 2.68 -5 2 C-3.35 1.34 -1.7 0.68 0 0 Z " fill="#DDBC35" transform="translate(1089,646)"/>
<path d="M0 0 C0.66 0 1.32 0 2 0 C2 0.66 2 1.32 2 2 C3.32 2 4.64 2 6 2 C6 2.66 6 3.32 6 4 C4.329375 4.2165625 4.329375 4.2165625 2.625 4.4375 C-0.82142047 4.78372035 -0.82142047 4.78372035 -3 6 C-2.67 5.01 -2.34 4.02 -2 3 C-1.34 3 -0.68 3 0 3 C0 2.01 0 1.02 0 0 Z " fill="#D4B415" transform="translate(1150,1062)"/>
<path d="M0 0 C2.15377564 2.62198774 3.40072174 4.64404172 4 8 C2.68 8 1.36 8 0 8 C0 6.68 0 5.36 0 4 C-0.66 4 -1.32 4 -2 4 C-1.34 2.68 -0.68 1.36 0 0 Z " fill="#D8BA26" transform="translate(1064,696)"/>
<path d="M0 0 C3.63 0 7.26 0 11 0 C11 1.32 11 2.64 11 4 C10.67 3.34 10.34 2.68 10 2 C7.64400765 1.53248212 7.64400765 1.53248212 4.9375 1.375 C4.01839844 1.30023437 3.09929687 1.22546875 2.15234375 1.1484375 C1.08693359 1.07496094 1.08693359 1.07496094 0 1 C0 0.67 0 0.34 0 0 Z " fill="#DAB519" transform="translate(1180,616)"/>
<path d="M0 0 C0.66 0.33 1.32 0.66 2 1 C1.5205537 5.21912747 0.83374881 7.79663178 -2 11 C-2.28571429 3.57142857 -2.28571429 3.57142857 0 0 Z " fill="#D5B316" transform="translate(1226,602)"/>
<path d="M0 0 C1.32 0 2.64 0 4 0 C3.67 1.98 3.34 3.96 3 6 C2.01 6 1.02 6 0 6 C0 4.02 0 2.04 0 0 Z " fill="#DAB410" transform="translate(1228,592)"/>
<path d="M0 0 C0.66 0 1.32 0 2 0 C1.29445932 3.66881155 -0.27735506 6.70450534 -2 10 C-2.66 9.34 -3.32 8.68 -4 8 C-3.34 6.02 -2.68 4.04 -2 2 C-1.34 2 -0.68 2 0 2 C0 1.34 0 0.68 0 0 Z " fill="#DCB410" transform="translate(1170,1034)"/>
<path d="M0 0 C0.66 0 1.32 0 2 0 C2 1.32 2 2.64 2 4 C2.66 4 3.32 4 4 4 C3.67 4.66 3.34 5.32 3 6 C1.35 6 -0.3 6 -2 6 C-1.49396008 3.83125748 -1.00016187 2.00032373 0 0 Z " fill="#E2B60B" transform="translate(1250,826)"/>
<path d="M0 0 C2.2477975 2.05233685 3.0022242 3.00667261 4 6 C2.68 6.33 1.36 6.66 0 7 C-1.125 2.25 -1.125 2.25 0 0 Z " fill="#F3F2F0" transform="translate(954,781)"/>
<path d="M0 0 C0.99 1.32 1.98 2.64 3 4 C2.34 4 1.68 4 1 4 C1 4.66 1 5.32 1 6 C-0.65 6.66 -2.3 7.32 -4 8 C-2.87548273 5.0280615 -1.77706209 2.66559313 0 0 Z " fill="#F0F0F0" transform="translate(867,681)"/>
<path d="M0 0 C0.99 0.33 1.98 0.66 3 1 C2.67 1.66 2.34 2.32 2 3 C1.01 3 0.02 3 -1 3 C-1 4.65 -1 6.3 -1 8 C-1.66 8 -2.32 8 -3 8 C-3.1875 5.125 -3.1875 5.125 -3 2 C-2.01 1.34 -1.02 0.68 0 0 Z " fill="#DCB51A" transform="translate(1081,648)"/>
<path d="M0 0 C0.66 0 1.32 0 2 0 C1.67 1.98 1.34 3.96 1 6 C-0.32 6.33 -1.64 6.66 -3 7 C-3 3.47967572 -2.29648649 2.5614657 0 0 Z " fill="#F4F4F4" transform="translate(900,641)"/>
<path d="M0 0 C0.66 0 1.32 0 2 0 C2.625 1.875 2.625 1.875 3 4 C2.34 4.66 1.68 5.32 1 6 C0.67 5.67 0.34 5.34 0 5 C-0.66 5.99 -1.32 6.98 -2 8 C-2 6.02 -2 4.04 -2 2 C-1.34 2 -0.68 2 0 2 C0 1.34 0 0.68 0 0 Z " fill="#D7B324" transform="translate(1222,614)"/>
<path d="M0 0 C-4.75 3 -4.75 3 -7 3 C-7.33 3.99 -7.66 4.98 -8 6 C-10 5 -10 5 -11 3 C-9.73581754 2.30034557 -8.46334598 1.61565237 -7.1875 0.9375 C-6.47980469 0.55464844 -5.77210938 0.17179688 -5.04296875 -0.22265625 C-3 -1 -3 -1 0 0 Z " fill="#EDECE9" transform="translate(978,584)"/>
<path d="M0 0 C3.99455527 0.61454696 6.74466336 2.70646737 10 5 C9.01 5.495 9.01 5.495 8 6 C6.0546875 5.22265625 6.0546875 5.22265625 3.875 4.0625 C3.15054687 3.68222656 2.42609375 3.30195312 1.6796875 2.91015625 C1.12539062 2.60980469 0.57109375 2.30945313 0 2 C0 1.34 0 0.68 0 0 Z " fill="#D4AE1E" transform="translate(1190,768)"/>
<path d="M0 0 C3.31562557 0.55260426 6.15062207 1.16825705 9 3 C9.33 3.99 9.66 4.98 10 6 C3.47692308 4.52307692 3.47692308 4.52307692 1.0625 1.875 C0.711875 1.25625 0.36125 0.6375 0 0 Z " fill="#E2BB33" transform="translate(1081,718)"/>
<path d="M0 0 C-0.33 0.99 -0.66 1.98 -1 3 C-3.31 3.33 -5.62 3.66 -8 4 C-8 3.34 -8 2.68 -8 2 C-5.09399739 0.74335022 -3.20395416 0 0 0 Z " fill="#DCBB2B" transform="translate(1127,626)"/>
<path d="M0 0 C1.32 0.33 2.64 0.66 4 1 C3.34 1.66 2.68 2.32 2 3 C2.66 3.66 3.32 4.32 4 5 C3.01 5.33 2.02 5.66 1 6 C0.01 5.34 -0.98 4.68 -2 4 C-1.34 2.68 -0.68 1.36 0 0 Z " fill="#F4F4F4" transform="translate(943,601)"/>
<path d="M0 0 C0.66 0.33 1.32 0.66 2 1 C0.70700306 3.88437779 -0.65941363 5.87219421 -3 8 C-3.66 6.68 -4.32 5.36 -5 4 C-4.01 3.67 -3.02 3.34 -2 3 C-1.34 2.01 -0.68 1.02 0 0 Z " fill="#F3F3EF" transform="translate(979,587)"/>
<path d="M0 0 C-0.33 1.32 -0.66 2.64 -1 4 C-3.31 4 -5.62 4 -8 4 C-3.375 0 -3.375 0 0 0 Z " fill="#DBB214" transform="translate(1152,544)"/>
<path d="M0 0 C0.66 0.33 1.32 0.66 2 1 C2.33 1.99 2.66 2.98 3 4 C0.23735711 4.59732819 -2.16032769 5 -5 5 C-3.35 3.35 -1.7 1.7 0 0 Z " fill="#F4F4F4" transform="translate(1021,1033)"/>
<path d="M0 0 C2.4375 1.1875 2.4375 1.1875 3.4375 3.1875 C1.6875 3.9375 1.6875 3.9375 -0.5625 4.1875 C-2.8125 2.25 -2.8125 2.25 -4.5625 0.1875 C-2.5625 -0.8125 -2.5625 -0.8125 0 0 Z " fill="#F3F3F3" transform="translate(1109.5625,883.8125)"/>
<path d="M0 0 C-0.99 1.485 -0.99 1.485 -2 3 C-3.32 3 -4.64 3 -6 3 C-6 2.34 -6 1.68 -6 1 C-6.66 0.67 -7.32 0.34 -8 0 C-4.71303767 -0.79953138 -3.28976808 -1.09658936 0 0 Z " fill="#D1B21B" transform="translate(1128,737)"/>
<path d="M0 0 C1.875 0.1875 1.875 0.1875 4 1 C5.25 3.5625 5.25 3.5625 6 6 C4.125 5.8125 4.125 5.8125 2 5 C0.75 2.4375 0.75 2.4375 0 0 Z " fill="#D7B31F" transform="translate(1064,705)"/>
<path d="M0 0 C0.66 1.32 1.32 2.64 2 4 C1.01 4.66 0.02 5.32 -1 6 C-1.99 5.67 -2.98 5.34 -4 5 C-4 4.34 -4 3.68 -4 3 C-2 1.375 -2 1.375 0 0 Z " fill="#F3F3F2" transform="translate(1120,1049)"/>
<path d="M0 0 C1.32 0.33 2.64 0.66 4 1 C2.68 2.32 1.36 3.64 0 5 C-0.99 4.67 -1.98 4.34 -3 4 C-2.01 2.68 -1.02 1.36 0 0 Z " fill="#F3F3F3" transform="translate(900,890)"/>
<path d="M0 0 C1.98 0.66 3.96 1.32 6 2 C3.08291076 3.98362069 1.87619096 3.9876191 -1.75 3.625 C-2.8225 3.41875 -3.895 3.2125 -5 3 C-5 2.67 -5 2.34 -5 2 C-3.35 1.67 -1.7 1.34 0 1 C0 0.67 0 0.34 0 0 Z " fill="#F3F2EF" transform="translate(1032,843)"/>
<path d="M0 0 C2.31 0 4.62 0 7 0 C7.33 0.99 7.66 1.98 8 3 C4.23312136 3 3.08809695 2.76462683 0 1 C0 0.67 0 0.34 0 0 Z " fill="#D9B223" transform="translate(1040,808)"/>
<path d="M0 0 C0.33 0 0.66 0 1 0 C1.33 3.63 1.66 7.26 2 11 C1.01 11 0.02 11 -1 11 C-0.67 7.37 -0.34 3.74 0 0 Z " fill="#E4C540" transform="translate(957,722)"/>
<path d="M0 0 C1.98 0.66 3.96 1.32 6 2 C6 2.66 6 3.32 6 4 C3.36 4 0.72 4 -2 4 C-1.01 3.67 -0.02 3.34 1 3 C0.67 2.01 0.34 1.02 0 0 Z " fill="#DAB924" transform="translate(1090,722)"/>
<path d="M0 0 C1.98 0.99 1.98 0.99 4 2 C3.6875 3.9375 3.6875 3.9375 3 6 C2.01 6.33 1.02 6.66 0 7 C0 4.69 0 2.38 0 0 Z " fill="#E3B709" transform="translate(964,690)"/>
<path d="M0 0 C1.65 0 3.3 0 5 0 C4.67 1.32 4.34 2.64 4 4 C2.68 4 1.36 4 0 4 C0 2.68 0 1.36 0 0 Z " fill="#D5B219" transform="translate(1096,636)"/>
<path d="M0 0 C0.99 0.33 1.98 0.66 3 1 C3.6875 3.0625 3.6875 3.0625 4 5 C2.68 5.33 1.36 5.66 0 6 C0 4.02 0 2.04 0 0 Z " fill="#E4B20E" transform="translate(1222,600)"/>
<path d="M0 0 C0.99 0.33 1.98 0.66 3 1 C-0.32307692 4.93846154 -0.32307692 4.93846154 -3.75 5.25 C-4.4925 5.1675 -5.235 5.085 -6 5 C-4.06745228 2.9754262 -2.36841312 1.57894208 0 0 Z " fill="#F2F2F2" transform="translate(959,591)"/>
<path d="M0 0 C0.99 0 1.98 0 3 0 C2.25 5.75 2.25 5.75 0 8 C0 5.36 0 2.72 0 0 Z " fill="#DAB93B" transform="translate(1260,934)"/>
<path d="M0 0 C3.34373475 0.55728913 6.03312999 1.35173889 9 3 C9 3.33 9 3.66 9 4 C6.1875 4.25 6.1875 4.25 3 4 C1.125 2 1.125 2 0 0 Z " fill="#DFB930" transform="translate(1137,742)"/>
<path d="M0 0 C2.97 0.495 2.97 0.495 6 1 C6 1.66 6 2.32 6 3 C4.35 3.33 2.7 3.66 1 4 C0.67 2.68 0.34 1.36 0 0 Z " fill="#DABB31" transform="translate(1098,726)"/>
<path d="M0 0 C0.66 0 1.32 0 2 0 C2 0.66 2 1.32 2 2 C3.65 2.33 5.3 2.66 7 3 C7 3.33 7 3.66 7 4 C4.69 4 2.38 4 0 4 C0 2.68 0 1.36 0 0 Z " fill="#D8B01B" transform="translate(1082,720)"/>
<path d="M0 0 C0.598125 0.309375 1.19625 0.61875 1.8125 0.9375 C4.08956772 2.10209704 4.08956772 2.10209704 7 3 C6.67 3.66 6.34 4.32 6 5 C3.83125748 4.49396008 2.00032373 4.00016187 0 3 C0 2.01 0 1.02 0 0 Z " fill="#DDB410" transform="translate(1073,715)"/>
<path d="M0 0 C0 0.66 0 1.32 0 2 C-1.98 2.99 -3.96 3.98 -6 5 C-6.66 4.34 -7.32 3.68 -8 3 C-3.375 0 -3.375 0 0 0 Z " fill="#D6B21A" transform="translate(1084,572)"/>
</svg>
